<svg width="120" height="83" viewBox="0 0 120 83" fill="none" xmlns="http://www.w3.org/2000/svg">
<path d="M10.1368 11.8897C18.5161 3.99956 31.1955 0 47.8166 0H53.789V14.6236L48.9872 15.4588C40.805 16.8801 35.1133 19.6762 32.0674 23.7795C30.4781 25.99 29.5768 28.5211 29.4515 31.125H47.8166C49.4006 31.125 50.9197 31.6715 52.0397 32.6444C53.1597 33.6172 53.789 34.9367 53.789 36.3125V72.625C53.789 78.3468 48.4317 83 41.8442 83H6.00993C4.42596 83 2.90686 82.4535 1.78682 81.4806C0.666784 80.5078 0.0375533 79.1883 0.0375533 77.8125V51.875L0.0554706 36.7327C0.00171916 36.1569 -1.13303 22.5137 10.1368 11.8897ZM107.54 83H71.7061C70.1221 83 68.603 82.4535 67.483 81.4806C66.363 80.5078 65.7337 79.1883 65.7337 77.8125V51.875L65.7516 36.7327C65.6979 36.1569 64.5631 22.5137 75.833 11.8897C84.2123 3.99956 96.8916 0 113.513 0H119.485V14.6236L114.683 15.4588C106.501 16.8801 100.81 19.6762 97.7636 23.7795C96.1743 25.99 95.2729 28.5211 95.1477 31.125H113.513C115.097 31.125 116.616 31.6715 117.736 32.6444C118.856 33.6172 119.485 34.9367 119.485 36.3125V72.625C119.485 78.3468 114.128 83 107.54 83Z" fill="white" fill-opacity="0.5"/>
</svg>
