<svg width="20" height="19" viewBox="0 0 20 19" fill="none" xmlns="http://www.w3.org/2000/svg">
<path fill-rule="evenodd" clip-rule="evenodd" d="M14.9394 0.100098C16.2804 0.100098 17.5704 0.630098 18.5194 1.5811C19.4694 2.5301 20.0004 3.8101 20.0004 5.1501V13.0501C20.0004 15.8401 17.7304 18.1001 14.9394 18.1001H5.06037C2.26937 18.1001 0.000366211 15.8401 0.000366211 13.0501V5.1501C0.000366211 2.3601 2.25937 0.100098 5.06037 0.100098H14.9394ZM16.5304 6.6401L16.6104 6.5601C16.8494 6.2701 16.8494 5.8501 16.5994 5.5601C16.4604 5.4111 16.2694 5.3201 16.0704 5.3001C15.8604 5.2891 15.6604 5.3601 15.5094 5.5001L11.0004 9.1001C10.4204 9.5811 9.58937 9.5811 9.00037 9.1001L4.50037 5.5001C4.18937 5.2701 3.75937 5.3001 3.50037 5.5701C3.23037 5.8401 3.20037 6.2701 3.42937 6.5701L3.56037 6.7001L8.11037 10.2501C8.67037 10.6901 9.34937 10.9301 10.0604 10.9301C10.7694 10.9301 11.4604 10.6901 12.0194 10.2501L16.5304 6.6401Z" fill="#D5BB73"/>
</svg>
