<svg width="71" height="36" viewBox="0 0 71 36" fill="none" xmlns="http://www.w3.org/2000/svg">
<path d="M70 32.1667L70 3.83333L64.25 1M70 32.1667L64.25 35L41.25 23.6667M70 32.1667L47 20.8333M64.25 1L64.25 23.6667L52.75 18L58.5 15.1667L35.5 26.5L12.5 15.1667L18.25 18L6.75 23.6667L6.75 0.999997M64.25 1L35.5 15.1667L6.75 0.999997M58.5 20.8333L58.5 9.5L35.5 20.8333L12.5 9.5L12.5 20.8333M1 32.1667L1 3.83333L6.75 0.999997M1 32.1667L6.75 35L29.75 23.6667M1 32.1667L24 20.8333" stroke="#D5BB73" stroke-linejoin="round"/>
</svg>
