<svg width="18" height="21" viewBox="0 0 18 21" fill="none" xmlns="http://www.w3.org/2000/svg">
<path fill-rule="evenodd" clip-rule="evenodd" d="M9.03 0.100118C11.29 0.110118 13.45 1.01012 15.03 2.59012C16.62 4.18012 17.51 6.33012 17.5 8.56012V8.61012C17.44 11.6401 15.74 14.4301 13.62 16.6101C12.42 17.8401 11.09 18.9301 9.64 19.8501C9.25 20.1801 8.68 20.1801 8.29 19.8501C6.14 18.4501 4.24 16.6901 2.7 14.6401C1.35 12.8601 0.58 10.7201 0.5 8.49012C0.52 3.84012 4.34 0.0901176 9.03 0.100118ZM9.03 11.3601C9.74 11.3601 10.42 11.0901 10.92 10.6001C11.44 10.0901 11.731 9.41112 11.731 8.70012C11.731 7.22012 10.52 6.03012 9.03 6.03012C7.54 6.03012 6.34 7.22012 6.34 8.70012C6.34 10.1611 7.52 11.3401 9 11.3601H9.03Z" fill="#D5BB73"/>
</svg>
