<svg width="14" height="21" viewBox="0 0 14 21" fill="none" xmlns="http://www.w3.org/2000/svg">
<path fill-rule="evenodd" clip-rule="evenodd" d="M0.00845931 8.7949C0.00845931 8.17625 0.015909 7.55761 0.0233933 6.93609L0.0233934 6.93608C0.0271878 6.62099 0.030991 6.30516 0.0338368 5.98822C0.0338368 2.58292 2.16556 0.100098 5.10936 0.100098H8.89063C11.8344 0.100098 13.9662 2.58292 13.9662 5.98822C13.9915 7.35231 14 8.71639 14 10.0903C14 11.4642 13.9915 12.8479 13.9662 14.212C13.9662 17.6173 11.8344 20.1001 8.89063 20.1001H5.10936C2.16556 20.1001 0.0338368 17.6173 0.0338368 14.2022C0.0169184 12.9166 0 11.6016 0 10.2669L0.00845931 8.7949ZM8.28 17.7403V17.9003C8.28 18.5739 7.7168 19.1003 7 19.1003C6.30027 19.1003 5.72 18.5739 5.72 17.9003V17.7403C5.72 17.0843 6.30027 16.5403 7 16.5403C7.7168 16.5403 8.28 17.0843 8.28 17.7403ZM2.01671 6.54374C2.01136 6.94772 2.00604 7.34984 2.00604 7.75196L2 8.70878C2 9.5763 2.01208 10.4311 2.02417 11.2667C2.02417 13.4865 3.54683 15.1003 5.64955 15.1003H8.35045C10.4532 15.1003 11.9758 13.4865 11.9758 11.2731C11.994 10.3864 12 9.48699 12 8.59396C12 7.70093 11.994 6.81428 11.9758 5.92762C11.9758 3.71418 10.4532 2.10034 8.35045 2.10034H5.64955C3.54683 2.10034 2.02417 3.71418 2.02417 5.92762C2.02214 6.13364 2.01942 6.33893 2.01671 6.54374Z" fill="#D5BB73"/>
</svg>
