<svg width="32" height="30" viewBox="0 0 32 30" fill="none" xmlns="http://www.w3.org/2000/svg">
<path d="M31.9839 9.88531L30.642 17.4012C30.4765 18.2314 29.7989 18.7362 29.0175 18.7457H9.45333L9.06491 20.8833H27.7109C28.6928 20.9561 29.3587 21.6351 29.3707 22.5036C29.2993 23.4602 28.6038 24.1121 27.7109 24.124H7.08728C5.97189 24.0261 5.3068 23.1581 5.42749 22.1933L6.31035 17.5045L4.9684 4.33453L1.15445 3.16241C0.222424 2.80114 -0.157976 1.978 0.0597039 1.12831C0.421651 0.242767 1.28893 -0.161825 2.14325 0.0595408L7.01664 1.57651C7.67317 1.81677 8.05085 2.34143 8.14669 2.95557L8.4292 5.57577L30.536 7.98911C31.5518 8.20392 32.1032 8.98938 31.9839 9.88531V9.88531ZM12.1406 27.5263C12.1406 28.8925 11.0062 30 9.60677 30C8.20739 30 7.07299 28.8925 7.07299 27.5263C7.07299 26.1601 8.20741 25.0526 9.60677 25.0526C11.0062 25.0527 12.1406 26.1602 12.1406 27.5263ZM27.2673 27.5263C27.2673 28.8925 26.1329 30 24.7335 30C23.3341 30 22.1997 28.8925 22.1997 27.5263C22.1997 26.1601 23.3341 25.0526 24.7335 25.0526C26.1329 25.0527 27.2673 26.1602 27.2673 27.5263Z" fill="#D5BB73"/>
</svg>
