<svg width="663" height="425" viewBox="0 0 663 425" fill="none" xmlns="http://www.w3.org/2000/svg">
<g clip-path="url(#clip0_256_377)">
<path d="M618.677 423.45C610.097 417.703 605.776 406.77 605.605 396.436C605.548 392.97 606.422 388.953 609.523 387.411C610.41 386.97 611.402 386.783 612.389 386.87C613.377 386.957 614.321 387.316 615.117 387.906C615.914 388.495 616.533 389.294 616.905 390.214C617.277 391.133 617.389 392.138 617.227 393.116C618.377 389.745 619.869 386.5 621.679 383.433C623.212 380.837 625.364 378.134 628.367 377.887C631.851 377.601 634.761 380.989 635.254 384.453C635.748 387.917 634.489 391.364 633.252 394.637C633.601 393.154 634.316 391.784 635.332 390.65C636.347 389.516 637.631 388.655 639.064 388.146C640.498 387.637 642.036 387.496 643.539 387.737C645.041 387.977 646.459 388.59 647.663 389.521C651.069 392.153 652.192 396.999 651.335 401.221C650.478 405.443 647.961 409.137 645.178 412.423C641.914 416.277 638.135 419.798 633.61 422.035C629.086 424.272 623.735 425.127 618.922 423.611L618.677 423.45Z" fill="#F2F2F2"/>
<path d="M501.313 285.054C502.494 284.466 503.531 283.626 504.353 282.592C505.174 281.559 505.759 280.358 506.067 279.074C506.374 277.79 506.397 276.454 506.133 275.16C505.869 273.866 505.325 272.646 504.539 271.586L525.563 169.394L505.944 169.135L491.344 270.03C489.652 271.47 488.546 273.482 488.236 275.683C487.926 277.885 488.434 280.123 489.663 281.975C490.892 283.827 492.756 285.163 494.903 285.731C497.05 286.298 499.331 286.058 501.313 285.054V285.054Z" fill="#FFB8B8"/>
<path d="M596.876 279.748C597.84 278.846 598.594 277.744 599.086 276.519C599.578 275.293 599.796 273.975 599.724 272.657C599.653 271.338 599.293 270.051 598.67 268.887C598.048 267.723 597.178 266.709 596.122 265.918L587.092 161.973L568.217 167.339L583.034 268.203C581.823 270.067 581.338 272.311 581.67 274.509C582.001 276.708 583.127 278.708 584.833 280.131C586.539 281.554 588.708 282.301 590.927 282.23C593.147 282.159 595.264 281.276 596.876 279.748V279.748Z" fill="#FFB8B8"/>
<path d="M536.332 413.811L526.035 413.81L521.137 374.05L536.333 374.051L536.332 413.811Z" fill="#FFB8B8"/>
<path d="M518.68 410.865H538.538V423.382H506.177C506.177 420.062 507.495 416.879 509.839 414.531C512.184 412.184 515.364 410.865 518.68 410.865V410.865Z" fill="#2F2E41"/>
<path d="M582.524 413.811L572.228 413.81L567.33 374.05L582.526 374.051L582.524 413.811Z" fill="#FFB8B8"/>
<path d="M564.873 410.865H584.731V423.382H552.37C552.37 420.062 553.687 416.879 556.032 414.531C558.377 412.184 561.557 410.865 564.873 410.865V410.865Z" fill="#2F2E41"/>
<path d="M539 129.731C550.392 129.731 559.628 120.486 559.628 109.08C559.628 97.6749 550.392 88.4291 539 88.4291C527.607 88.4291 518.372 97.6749 518.372 109.08C518.372 120.486 527.607 129.731 539 129.731Z" fill="#FFB8B8"/>
<path d="M567.999 388.723C567.159 388.719 566.347 388.425 565.7 387.89C565.052 387.355 564.609 386.613 564.445 385.789L550.5 313.557C550.373 312.896 550.012 312.302 549.485 311.884C548.957 311.466 548.298 311.251 547.625 311.278C546.953 311.305 546.312 311.572 545.82 312.032C545.328 312.491 545.017 313.112 544.942 313.781L537.134 384.138C537.042 384.997 536.645 385.794 536.015 386.384C535.386 386.975 534.565 387.319 533.703 387.355L521.991 387.887C521.515 387.913 521.039 387.842 520.591 387.679C520.142 387.516 519.732 387.265 519.382 386.94C519.03 386.618 518.746 386.23 518.545 385.798C518.344 385.365 518.231 384.897 518.213 384.42L513.722 275.738C513.698 275.189 513.8 274.642 514.019 274.139C514.239 273.636 514.57 273.189 514.989 272.834L517.586 270.616C518.24 270.057 519.073 269.75 519.933 269.75H580.637C581.596 269.751 582.516 270.133 583.194 270.811C583.872 271.49 584.253 272.411 584.254 273.371V384.551C584.256 385.485 583.897 386.383 583.252 387.057C582.607 387.731 581.726 388.13 580.795 388.169L568.154 388.72C568.102 388.721 568.05 388.723 567.999 388.723Z" fill="#2F2E41"/>
<path d="M536.91 285.562C527.095 285.563 518.444 282.945 514.077 275.309C513.711 274.68 513.54 273.957 513.584 273.231L519.072 189.253C519.117 188.574 518.914 187.902 518.502 187.361L503.104 167.15C502.815 166.771 502.604 166.339 502.483 165.878C502.361 165.417 502.332 164.937 502.396 164.465C502.46 163.993 502.617 163.539 502.857 163.127C503.097 162.716 503.416 162.356 503.795 162.069L526.893 144.55C527.378 144.181 527.731 143.665 527.9 143.079L528.573 140.721C528.781 139.987 529.216 139.338 529.816 138.866C530.416 138.395 531.149 138.126 531.911 138.098L548.86 137.445C549.425 137.426 549.987 137.538 550.502 137.774C551.016 138.009 551.469 138.361 551.824 138.802L553.627 141.059C553.857 141.347 554.142 141.587 554.464 141.765L582.809 157.446C583.369 157.757 583.836 158.21 584.164 158.76C584.492 159.31 584.669 159.937 584.676 160.577L584.677 160.627L584.665 160.675C578.058 188.256 578.43 223.118 585.835 270.388C585.855 271.109 585.659 271.82 585.273 272.428C584.886 273.037 584.327 273.517 583.667 273.805C577.532 276.465 555.202 285.562 536.91 285.562Z" fill="#862513"/>
<path d="M519.649 198.939H500.451C499.959 198.94 499.471 198.84 499.019 198.645C498.567 198.45 498.159 198.165 497.821 197.807C497.482 197.448 497.221 197.025 497.052 196.561C496.884 196.098 496.811 195.605 496.84 195.113C497.126 190.217 497.689 180.905 498.254 173.562C499.066 162.994 509.408 157.793 509.513 157.741L509.715 157.642L516.697 162.08L523.196 194.609C523.301 195.134 523.288 195.676 523.158 196.196C523.028 196.715 522.785 197.2 522.446 197.614C522.107 198.028 521.68 198.362 521.196 198.591C520.713 198.82 520.184 198.939 519.649 198.939H519.649Z" fill="#862513"/>
<path d="M572.255 197.145C571.748 197.142 571.248 197.033 570.786 196.824C570.325 196.615 569.912 196.312 569.575 195.933C569.238 195.555 568.984 195.11 568.829 194.627C568.674 194.144 568.622 193.634 568.677 193.13L572.22 160.498L579.065 155.479L579.22 155.496C579.294 155.505 586.585 156.416 589.852 164.592C592.178 170.414 595.731 181.174 597.642 187.07C597.795 187.544 597.849 188.044 597.8 188.54C597.751 189.035 597.601 189.516 597.358 189.95C597.115 190.385 596.785 190.765 596.389 191.066C595.992 191.367 595.538 191.583 595.055 191.7L573.127 197.039C572.842 197.11 572.549 197.145 572.255 197.145V197.145Z" fill="#862513"/>
<path d="M539.469 129.875C543.881 122.888 538.373 103.651 526.371 103.15C523.6 103.034 522.536 98.997 521.594 96.3857C521.115 94.8717 520.987 93.268 521.222 91.6971C521.456 90.1262 522.046 88.6298 522.947 87.3223C524.78 84.7167 527.303 82.6758 530.233 81.4297C533.529 79.9139 537.112 79.1256 540.738 79.1183C544.365 79.111 547.951 79.8849 551.253 81.3874C554.554 82.8899 557.495 85.0859 559.874 87.8263C562.253 90.5667 564.015 93.7874 565.042 97.2699C566.068 100.752 566.334 104.415 565.821 108.01C565.309 111.604 564.03 115.046 562.071 118.102C560.113 121.158 557.521 123.756 554.471 125.721C551.421 127.685 547.984 128.97 544.394 129.488L539.469 129.875Z" fill="#2F2E41"/>
<path d="M414.895 0H5.87907C4.32038 0.00173144 2.82601 0.622391 1.72385 1.72579C0.62168 2.8292 0.0017295 4.32523 0 5.88567V283.353C0.00173172 284.914 0.621681 286.41 1.72385 287.513C2.82601 288.617 4.32038 289.237 5.87907 289.239H414.895C416.453 289.237 417.948 288.617 419.05 287.513C420.152 286.41 420.772 284.914 420.774 283.353V5.88567C420.772 4.32523 420.152 2.8292 419.05 1.72579C417.948 0.622391 416.453 0.00173144 414.895 0V0ZM419.094 283.353C419.093 284.468 418.651 285.537 417.863 286.325C417.076 287.114 416.008 287.557 414.895 287.557H5.87907C4.76548 287.557 3.69761 287.114 2.91018 286.325C2.12274 285.537 1.68018 284.468 1.67974 283.353V5.88567C1.68018 4.77083 2.12274 3.70177 2.91018 2.91346C3.69761 2.12514 4.76548 1.68207 5.87907 1.68162H414.895C416.008 1.68207 417.076 2.12514 417.863 2.91346C418.651 3.70177 419.093 4.77083 419.094 5.88567V283.353Z" fill="#3F3D56"/>
<path d="M419.934 23.5763H0.839844V25.2579H419.934V23.5763Z" fill="#3F3D56"/>
<path d="M15.1178 17.657C17.9009 17.657 20.157 15.3984 20.157 12.6122C20.157 9.82598 17.9009 7.56732 15.1178 7.56732C12.3347 7.56732 10.0786 9.82598 10.0786 12.6122C10.0786 15.3984 12.3347 17.657 15.1178 17.657Z" fill="#3F3D56"/>
<path d="M29.6051 17.657C32.3882 17.657 34.6443 15.3984 34.6443 12.6122C34.6443 9.82598 32.3882 7.56732 29.6051 7.56732C26.822 7.56732 24.5659 9.82598 24.5659 12.6122C24.5659 15.3984 26.822 17.657 29.6051 17.657Z" fill="#3F3D56"/>
<path d="M44.0929 17.657C46.876 17.657 49.1321 15.3984 49.1321 12.6122C49.1321 9.82598 46.876 7.56732 44.0929 7.56732C41.3098 7.56732 39.0537 9.82598 39.0537 12.6122C39.0537 15.3984 41.3098 17.657 44.0929 17.657Z" fill="#3F3D56"/>
<path d="M339.161 81.1084H78.8021C75.3496 81.1084 72.0384 79.7354 69.5971 77.2913C67.1557 74.8472 65.7842 71.5323 65.7842 68.0758C65.7842 64.6194 67.1557 61.3045 69.5971 58.8604C72.0384 56.4164 75.3496 55.0433 78.8021 55.0433H339.161C342.614 55.0433 345.925 56.4164 348.366 58.8604C350.807 61.3045 352.179 64.6194 352.179 68.0758C352.179 71.5323 350.807 74.8472 348.366 77.2913C345.925 79.7354 342.614 81.1084 339.161 81.1084V81.1084ZM78.8021 56.7249C75.795 56.7249 72.9111 57.9208 70.7848 60.0495C68.6585 62.1782 67.4639 65.0654 67.4639 68.0758C67.4639 71.0863 68.6585 73.9735 70.7848 76.1022C72.9111 78.2309 75.795 79.4268 78.8021 79.4268H339.161C342.168 79.4268 345.052 78.2309 347.178 76.1022C349.305 73.9735 350.499 71.0863 350.499 68.0758C350.499 65.0654 349.305 62.1782 347.178 60.0495C345.052 57.9208 342.168 56.7249 339.161 56.7249H78.8021Z" fill="#3F3D56"/>
<path d="M145.992 147.532H95.5995C92.1469 147.532 88.8358 146.159 86.3944 143.715C83.9531 141.271 82.5815 137.956 82.5815 134.5C82.5815 131.043 83.9531 127.729 86.3944 125.285C88.8358 122.84 92.1469 121.467 95.5995 121.467H145.992C149.444 121.467 152.755 122.84 155.197 125.285C157.638 127.729 159.009 131.043 159.009 134.5C159.009 137.956 157.638 141.271 155.197 143.715C152.755 146.159 149.444 147.532 145.992 147.532V147.532ZM95.5995 123.149C92.5924 123.149 89.7085 124.345 87.5822 126.474C85.4558 128.602 84.2613 131.489 84.2613 134.5C84.2613 137.51 85.4558 140.398 87.5822 142.526C89.7085 144.655 92.5924 145.851 95.5995 145.851H145.992C148.999 145.851 151.883 144.655 154.009 142.526C156.135 140.398 157.33 137.51 157.33 134.5C157.33 131.489 156.135 128.602 154.009 126.474C151.883 124.345 148.999 123.149 145.992 123.149H95.5995Z" fill="#3F3D56"/>
<path d="M145.992 191.255H95.5995C92.1469 191.255 88.8358 189.882 86.3944 187.437C83.9531 184.993 82.5815 181.678 82.5815 178.222C82.5815 174.766 83.9531 171.451 86.3944 169.007C88.8358 166.563 92.1469 165.189 95.5995 165.189H145.992C149.444 165.189 152.755 166.563 155.197 169.007C157.638 171.451 159.009 174.766 159.009 178.222C159.009 181.678 157.638 184.993 155.197 187.437C152.755 189.882 149.444 191.255 145.992 191.255V191.255ZM95.5995 166.871C92.5924 166.871 89.7085 168.067 87.5822 170.196C85.4558 172.324 84.2613 175.212 84.2613 178.222C84.2613 181.232 85.4558 184.12 87.5822 186.248C89.7085 188.377 92.5924 189.573 95.5995 189.573H145.992C148.999 189.573 151.883 188.377 154.009 186.248C156.135 184.12 157.33 181.232 157.33 178.222C157.33 175.212 156.135 172.324 154.009 170.196C151.883 168.067 148.999 166.871 145.992 166.871H95.5995Z" fill="#3F3D56"/>
<path d="M145.992 234.977H95.5995C92.1469 234.977 88.8358 233.604 86.3944 231.16C83.9531 228.716 82.5815 225.401 82.5815 221.944C82.5815 218.488 83.9531 215.173 86.3944 212.729C88.8358 210.285 92.1469 208.912 95.5995 208.912H145.992C149.444 208.912 152.755 210.285 155.197 212.729C157.638 215.173 159.009 218.488 159.009 221.944C159.009 225.401 157.638 228.716 155.197 231.16C152.755 233.604 149.444 234.977 145.992 234.977V234.977ZM95.5995 210.593C92.5924 210.593 89.7085 211.789 87.5822 213.918C85.4558 216.047 84.2613 218.934 84.2613 221.944C84.2613 224.955 85.4558 227.842 87.5822 229.971C89.7085 232.099 92.5924 233.295 95.5995 233.295H145.992C148.999 233.295 151.883 232.099 154.009 229.971C156.135 227.842 157.33 224.955 157.33 221.944C157.33 218.934 156.135 216.047 154.009 213.918C151.883 211.789 148.999 210.593 145.992 210.593H95.5995Z" fill="#3F3D56"/>
<path d="M153.55 73.9615H83.0016C81.4424 73.9615 79.947 73.3415 78.8445 72.2377C77.742 71.1339 77.1226 69.6368 77.1226 68.0759C77.1226 66.5149 77.742 65.0178 78.8445 63.9141C79.947 62.8103 81.4424 62.1902 83.0016 62.1902H153.55C155.11 62.1902 156.605 62.8103 157.708 63.9141C158.81 65.0178 159.43 66.5149 159.43 68.0759C159.43 69.6368 158.81 71.1339 157.708 72.2377C156.605 73.3415 155.11 73.9615 153.55 73.9615Z" fill="#862513"/>
<path d="M330.342 71.0187C329.18 71.0187 328.043 70.6735 327.076 70.0268C326.109 69.3801 325.356 68.4609 324.911 67.3854C324.466 66.3099 324.35 65.1265 324.576 63.9848C324.803 62.8431 325.363 61.7944 326.185 60.9712C327.007 60.1481 328.055 59.5876 329.195 59.3605C330.336 59.1334 331.518 59.2499 332.592 59.6954C333.667 60.1409 334.585 60.8952 335.231 61.8631C335.877 62.831 336.222 63.969 336.222 65.133C336.22 66.6935 335.6 68.1895 334.498 69.2929C333.395 70.3963 331.901 71.017 330.342 71.0187ZM330.342 60.929C329.512 60.929 328.7 61.1755 328.009 61.6375C327.319 62.0994 326.781 62.756 326.463 63.5242C326.145 64.2924 326.062 65.1377 326.224 65.9532C326.386 66.7687 326.786 67.5178 327.373 68.1058C327.96 68.6937 328.709 69.0941 329.523 69.2563C330.338 69.4185 331.182 69.3353 331.949 69.0171C332.717 68.6989 333.373 68.16 333.834 67.4687C334.296 66.7773 334.542 65.9645 334.542 65.133C334.541 64.0184 334.098 62.9499 333.31 62.1617C332.523 61.3736 331.456 60.9303 330.342 60.929V60.929Z" fill="#3F3D56"/>
<path d="M339.437 76.3432C339.327 76.3433 339.218 76.3216 339.116 76.2793C339.014 76.237 338.921 76.175 338.843 76.0968L332.942 70.189C332.864 70.1109 332.802 70.0182 332.76 69.9162C332.718 69.8142 332.696 69.7049 332.696 69.5945C332.696 69.4841 332.718 69.3748 332.76 69.2728C332.802 69.1708 332.864 69.0781 332.942 69C333.02 68.9219 333.113 68.86 333.215 68.8178C333.317 68.7755 333.426 68.7538 333.536 68.7538C333.646 68.7538 333.756 68.7755 333.857 68.8178C333.959 68.86 334.052 68.9219 334.13 69L340.031 74.9079C340.148 75.0254 340.228 75.1753 340.261 75.3383C340.293 75.5014 340.276 75.6704 340.213 75.8241C340.149 75.9777 340.042 76.109 339.904 76.2014C339.766 76.2938 339.603 76.3431 339.437 76.3431L339.437 76.3432Z" fill="#3F3D56"/>
<path d="M326.983 142.488H298.427C296.311 142.488 294.282 141.646 292.786 140.148C291.289 138.65 290.449 136.618 290.449 134.5C290.449 132.381 291.289 130.35 292.786 128.852C294.282 127.354 296.311 126.512 298.427 126.512H326.983C329.099 126.512 331.129 127.354 332.625 128.852C334.121 130.35 334.962 132.381 334.962 134.5C334.962 136.618 334.121 138.65 332.625 140.148C331.129 141.646 329.099 142.488 326.983 142.488V142.488Z" fill="#862513"/>
<path d="M326.983 186.21H298.427C296.311 186.21 294.282 185.368 292.786 183.87C291.289 182.372 290.449 180.341 290.449 178.222C290.449 176.104 291.289 174.072 292.786 172.574C294.282 171.076 296.311 170.234 298.427 170.234H326.983C329.099 170.234 331.129 171.076 332.625 172.574C334.121 174.072 334.962 176.104 334.962 178.222C334.962 180.341 334.121 182.372 332.625 183.87C331.129 185.368 329.099 186.21 326.983 186.21V186.21Z" fill="#862513"/>
<path d="M326.983 229.932H298.427C296.311 229.932 294.282 229.09 292.786 227.592C291.289 226.094 290.449 224.063 290.449 221.944C290.449 219.826 291.289 217.794 292.786 216.296C294.282 214.798 296.311 213.957 298.427 213.957H326.983C329.099 213.957 331.129 214.798 332.625 216.296C334.121 217.794 334.962 219.826 334.962 221.944C334.962 224.063 334.121 226.094 332.625 227.592C331.129 229.09 329.099 229.932 326.983 229.932V229.932Z" fill="#862513"/>
<path d="M661.485 425H453.198C452.975 425 452.761 424.911 452.604 424.754C452.446 424.596 452.358 424.382 452.358 424.159C452.358 423.936 452.446 423.722 452.604 423.565C452.761 423.407 452.975 423.318 453.198 423.318H661.485C661.708 423.318 661.921 423.407 662.079 423.565C662.236 423.722 662.325 423.936 662.325 424.159C662.325 424.382 662.236 424.596 662.079 424.754C661.921 424.911 661.708 425 661.485 425Z" fill="#3F3D56"/>
</g>
<defs>
<clipPath id="clip0_256_377">
<rect width="662.325" height="425" fill="white"/>
</clipPath>
</defs>
</svg>
