<svg width="196" height="61" viewBox="0 0 196 61" fill="none" xmlns="http://www.w3.org/2000/svg">
<path d="M56.1404 43.0381C55.8334 42.2988 55.5456 41.5215 55.2386 40.8579L53.8189 37.6919L53.7613 37.635C49.5403 28.535 45.0315 19.2833 40.2542 10.1833L40.0623 9.80417C39.5826 8.91313 39.103 7.92729 38.6041 7.01729C37.9902 5.93667 37.3954 4.78021 36.4169 3.68063C35.4631 2.5301 34.2627 1.60315 32.9024 0.966655C31.5421 0.33016 30.0557 0 28.5505 0C27.0454 0 25.559 0.33016 24.1987 0.966655C22.8383 1.60315 21.638 2.5301 20.6842 3.68063C19.7824 4.78021 19.1109 5.93667 18.4969 7.01729C18.0173 8.00313 17.5376 8.97 17.0388 9.86104L16.8469 10.2402C12.1463 19.3402 7.56076 28.5919 3.33978 37.6919L3.22466 37.8056C2.80256 38.7915 2.30372 39.8152 1.82406 40.9148C1.51708 41.5783 1.2101 42.2988 0.903119 43.095C0.0743344 45.18 -0.190323 47.4424 0.135231 49.6593C0.460784 51.8762 1.36531 53.9709 2.75967 55.7372C4.15402 57.5034 5.99008 58.8802 8.08689 59.7318C10.1837 60.5834 12.4689 60.8804 14.7172 60.5935C16.8728 60.3132 18.9483 59.6037 20.8185 58.5081C23.3127 57.1242 25.711 55.1146 28.397 52.214C31.0831 55.1146 33.539 57.1242 35.9756 58.5271C38.3189 59.8861 40.9724 60.6362 43.6885 60.7073C46.8338 60.7202 49.8776 59.6083 52.258 57.5767C54.6384 55.5452 56.1946 52.7313 56.6392 49.6546C57.1531 47.4436 56.9793 45.1308 56.1404 43.0192V43.0381ZM28.5889 46.1852C25.2889 42.0144 23.14 38.1848 22.4109 34.905C22.1089 33.6897 22.0438 32.4286 22.2191 31.1892C22.3534 30.2223 22.7179 29.3692 23.2168 28.6488C24.3679 26.9994 26.3825 25.9756 28.5889 25.9756C29.6367 25.944 30.6761 26.1699 31.6138 26.6332C32.5514 27.0965 33.358 27.7825 33.9611 28.6298C34.4599 29.3881 34.8245 30.2223 34.9396 31.1892C35.1314 32.2888 35.0547 33.559 34.7477 34.905C34.0186 38.1279 31.8698 41.9954 28.5889 46.1852ZM53.0322 48.991C52.8142 50.5531 52.1858 52.0315 51.2096 53.2788C50.2334 54.5262 48.9434 55.499 47.4682 56.1004C46.01 56.7071 44.3984 56.8777 42.8251 56.7071C41.2902 56.5175 39.7553 56.0246 38.182 55.1146C35.5698 53.5192 33.221 51.5371 31.2174 49.2375C35.2465 44.3083 37.6832 39.8152 38.6041 35.815C39.0454 33.9192 39.103 32.2129 38.9111 30.6394C38.6715 29.1479 38.1087 27.7252 37.2611 26.4685C36.2933 25.1059 35.0016 23.9991 33.4995 23.2454C31.9974 22.4917 30.3309 22.1142 28.6465 22.146C25.097 22.146 21.9313 23.7765 20.0126 26.4496C19.149 27.703 18.5908 29.1371 18.3818 30.6394C18.1324 32.2319 18.19 33.995 18.6888 35.815C19.6097 39.8152 22.1039 44.3652 26.0755 49.2754C24.106 51.619 21.7516 53.6185 19.1109 55.1904C17.5184 56.1004 16.0027 56.5744 14.4678 56.764C12.0808 57.0661 9.66961 56.4251 7.7583 54.9802C5.84698 53.5353 4.59005 51.4035 4.26072 49.0479C4.06885 47.5313 4.20316 46.0146 4.81712 44.3083C5.00898 43.7017 5.29678 43.095 5.60376 42.3746C6.02585 41.3888 6.5247 40.365 7.00435 39.3413L7.0811 39.2085C11.2253 30.1654 15.7533 20.9327 20.4539 11.8896L20.6458 11.5104C21.1254 10.6004 21.6051 9.63354 22.104 8.72354C22.6028 7.75667 23.14 6.82771 23.8307 6.06938C24.4286 5.36417 25.1756 4.79703 26.0193 4.4079C26.8629 4.01877 27.7826 3.8171 28.7136 3.8171C29.6446 3.8171 30.5643 4.01877 31.408 4.4079C32.2516 4.79703 32.9987 5.36417 33.5965 6.06938C34.268 6.82771 34.8244 7.75667 35.3233 8.72354C35.8029 9.63354 36.2826 10.6194 36.7814 11.5104L36.9733 11.8896C41.6548 20.9327 46.1827 30.1654 50.4037 39.2085L50.4613 39.2654C50.9601 40.2513 51.3822 41.3508 51.8619 42.2988C52.1688 43.0381 52.4758 43.6258 52.6677 44.2515C53.0322 45.9577 53.2241 47.4744 53.0322 48.991V48.991ZM79.7395 45.7681C78.2938 45.789 76.8618 45.488 75.5498 44.8874C74.2379 44.2868 73.0796 43.4021 72.1609 42.2988C70.0966 39.9478 69.001 36.9166 69.0911 33.8054C69.0595 30.6265 70.1905 27.5432 72.2761 25.1225C73.2407 24.0051 74.4416 23.1103 75.7941 22.5011C77.1465 21.8918 78.6177 21.583 80.104 21.5963C81.5026 21.5584 82.8879 21.8727 84.1297 22.5094C85.3716 23.1462 86.4291 24.0845 87.203 25.2363L87.3948 22.2598H92.9972V45.1615H87.3756L87.1838 41.8248C86.386 43.0546 85.2832 44.0624 83.9803 44.7525C82.6774 45.4427 81.2176 45.7923 79.7395 45.7681V45.7681ZM81.1977 40.3081C82.3105 40.3081 83.289 40.0048 84.2099 39.455C85.0541 38.8483 85.7448 38.0521 86.282 37.0852C86.7617 36.1183 87.0111 34.9619 87.0111 33.6727C87.0859 32.553 86.8653 31.4333 86.371 30.4231C85.8766 29.4129 85.1254 28.5467 84.1907 27.9094C83.2927 27.3565 82.2558 27.0634 81.1977 27.0634C80.1396 27.0634 79.1027 27.3565 78.2046 27.9094C77.3604 28.516 76.6697 29.3123 76.1325 30.2792C75.6251 31.3455 75.3755 32.5137 75.4034 33.6917C75.3286 34.8114 75.5492 35.9311 76.0436 36.9413C76.5379 37.9515 77.2892 38.8176 78.2238 39.455C79.1256 40.0048 80.104 40.3081 81.1977 40.3081ZM102.59 16.0794C102.59 16.7429 102.475 17.3496 102.168 17.8425C101.861 18.3165 101.439 18.7525 100.883 19.0558C100.326 19.3592 99.7316 19.4729 99.1176 19.4729C98.5037 19.4729 97.8897 19.3592 97.3333 19.0558C96.8071 18.7664 96.3646 18.3487 96.0478 17.8425C95.7507 17.3024 95.605 16.6937 95.6257 16.0794C95.6257 15.3969 95.7601 14.7902 96.0478 14.3163C96.3548 13.7475 96.7961 13.4063 97.3333 13.1029C97.8897 12.7996 98.4845 12.6669 99.1176 12.6669C99.7284 12.653 100.332 12.7959 100.87 13.0817C101.408 13.3675 101.862 13.7863 102.187 14.2973C102.467 14.85 102.605 15.4618 102.59 16.0794V16.0794ZM96.067 45.0856V22.2219H102.168V45.1235H96.0478L96.067 45.0856ZM118.477 28.2127V28.2885C118.189 28.1558 117.805 28.099 117.517 28.0421C117.134 27.9663 116.827 27.9663 116.462 27.9663C114.754 27.9663 113.469 28.4592 112.625 29.4829C111.704 30.5256 111.282 31.9854 111.282 33.8623V45.1046H105.161V22.2029H110.783L110.975 25.6723C111.589 24.459 112.318 23.549 113.354 22.8665C114.384 22.2033 115.598 21.8722 116.827 21.9185C117.268 21.9185 117.69 21.9565 118.054 22.0323C118.246 22.0892 118.361 22.0892 118.477 22.146V28.2127V28.2127ZM120.932 45.0856V12.8185H127.034V25.1415C127.897 24.0419 128.876 23.1888 130.103 22.5252C132.047 21.5834 134.256 21.3163 136.372 21.7669C138.489 22.2175 140.39 23.3595 141.769 25.0088C143.838 27.3645 144.934 30.4034 144.839 33.521C144.87 36.7 143.739 39.7833 141.654 42.204C140.689 43.3213 139.488 44.2161 138.136 44.8254C136.783 45.4346 135.312 45.7435 133.826 45.7302C132.427 45.768 131.042 45.4538 129.8 44.817C128.558 44.1803 127.501 43.2419 126.727 42.0902L126.535 45.0667L120.932 45.1235V45.0856ZM132.732 40.3081C133.826 40.3081 134.804 40.0048 135.725 39.455C136.569 38.8483 137.26 38.0521 137.797 37.0852C138.296 36.1183 138.526 34.9619 138.526 33.6727C138.526 32.4025 138.296 31.246 137.797 30.2792C137.293 29.3469 136.585 28.5373 135.725 27.9094C134.827 27.3565 133.79 27.0634 132.732 27.0634C131.674 27.0634 130.637 27.3565 129.739 27.9094C128.876 28.516 128.204 29.3123 127.648 30.2792C127.14 31.3455 126.891 32.5137 126.919 33.6917C126.844 34.8114 127.064 35.9311 127.559 36.9413C128.053 37.9515 128.804 38.8176 129.739 39.455C130.641 40.0048 131.619 40.3081 132.732 40.3081ZM147.141 45.1046V22.2029H152.762L152.954 25.1794C153.661 24.0384 154.663 23.1047 155.857 22.4748C157.051 21.8448 158.394 21.5415 159.746 21.5963C161.293 21.5699 162.813 21.9946 164.117 22.8174C165.42 23.6401 166.449 24.8244 167.075 26.2221C167.747 27.6629 168.111 29.445 168.111 31.4356V45.1615H161.991V32.2319C161.991 30.6394 161.627 29.3881 160.897 28.4592C160.168 27.5492 159.171 27.0563 157.904 27.0563C156.983 27.0563 156.178 27.2458 155.468 27.6629C154.796 28.099 154.24 28.6488 153.818 29.426C153.391 30.2118 153.179 31.094 153.204 31.9854V45.1046H147.141V45.1046ZM171.162 45.1046V12.7996H177.283V25.1225C178.112 24.0168 179.19 23.1172 180.432 22.4953C181.674 21.8733 183.046 21.546 184.439 21.5394C185.885 21.5185 187.317 21.8195 188.629 22.4201C189.941 23.0207 191.099 23.9054 192.018 25.0088C194.072 27.3644 195.16 30.394 195.068 33.5021C195.102 36.6813 193.97 39.7652 191.883 42.185C190.919 43.3024 189.718 44.1972 188.365 44.8064C187.013 45.4157 185.542 45.7245 184.055 45.7113C182.657 45.7491 181.271 45.4348 180.03 44.7981C178.788 44.1613 177.73 43.223 176.956 42.0713L176.784 45.0477L171.162 45.1046V45.1046ZM183.019 40.3081C184.132 40.3081 185.111 40.0048 186.012 39.455C186.876 38.8483 187.547 38.0521 188.104 37.0852C188.583 36.1183 188.833 34.9619 188.833 33.6727C188.907 32.553 188.687 31.4333 188.193 30.4231C187.698 29.4129 186.947 28.5467 186.012 27.9094C185.114 27.3565 184.077 27.0634 183.019 27.0634C181.961 27.0634 180.924 27.3565 180.026 27.9094C179.182 28.516 178.491 29.3123 177.954 30.2792C177.419 31.3359 177.167 32.5112 177.225 33.6917C177.15 34.8114 177.371 35.9311 177.865 36.9413C178.359 37.9515 179.111 38.8176 180.045 39.455C180.947 40.0048 181.868 40.3081 183.019 40.3081Z" fill="white"/>
</svg>
