<svg width="289" height="54" viewBox="0 0 289 54" fill="none" xmlns="http://www.w3.org/2000/svg">
<path d="M21.7268 31.3217C20.8844 30.2196 19.9938 29.3127 19.9938 27.2578V20.4388C19.9938 17.5344 20.2104 14.8826 17.972 12.8851C16.215 11.2779 13.2905 10.7039 11.0521 10.7039C6.68355 10.7039 1.79751 12.2652 0.774567 17.4196C0.666256 17.9592 1.08747 18.2462 1.46054 18.338L5.91334 18.7972C6.33455 18.7743 6.63542 18.3839 6.71966 17.9936C7.10477 16.2142 8.65723 15.3533 10.4143 15.3533C11.365 15.3533 12.4361 15.6977 12.9897 16.4898C13.6396 17.3967 13.5553 18.625 13.5553 19.6697V20.2437C10.8836 20.5192 7.40563 20.7143 4.90243 21.759C3.41366 22.3287 2.14488 23.3219 1.26855 24.6035C0.392208 25.8852 -0.0491861 27.3931 0.00435326 28.9224C0.00435326 33.4799 3.013 35.7529 6.88814 35.7529C10.1616 35.7529 11.9427 35.0182 14.4699 32.573C15.3003 33.721 15.5651 34.295 17.0935 35.5004C17.265 35.5878 17.4604 35.6237 17.6537 35.6032C17.847 35.5827 18.0294 35.5068 18.1766 35.3856L21.7148 32.4926C22.0999 32.1942 22.0277 31.7235 21.7268 31.3217V31.3217ZM13.5433 24.6978C13.5433 26.4198 13.5914 27.8318 12.7009 29.3587C11.9667 30.587 10.7994 31.3447 9.51168 31.3447C7.7426 31.3447 6.71966 30.0589 6.71966 28.1648C6.71966 24.4338 10.2217 23.7565 13.5553 23.7565L13.5433 24.6978ZM81.984 31.3217C81.1416 30.2196 80.251 29.3127 80.251 27.2578V20.4388C80.251 17.5344 80.4677 14.8826 78.2292 12.8851C76.4601 11.2779 73.5357 10.7039 71.3093 10.7039C66.9287 10.7039 62.0427 12.2652 61.0318 17.4196C60.9114 17.9592 61.3447 18.2577 61.7178 18.338L66.1706 18.7972C66.5797 18.7743 66.8926 18.3839 66.9649 17.9936C67.35 16.2142 68.9145 15.3533 70.6595 15.3533C71.6102 15.3533 72.6813 15.6977 73.2349 16.4898C73.8847 17.3967 73.8005 18.625 73.8005 19.6697V20.2437C71.1409 20.5307 67.6508 20.7143 65.1597 21.759C63.6676 22.3255 62.3953 23.3175 61.5165 24.5997C60.6376 25.8818 60.1952 27.3914 60.2495 28.9224C60.2495 33.4799 63.2582 35.7529 67.1333 35.7529C70.4067 35.7529 72.1879 35.0182 74.7151 32.573C75.5455 33.721 75.8223 34.295 77.3507 35.5004C77.5218 35.5894 77.7175 35.6262 77.9112 35.6057C78.105 35.5851 78.2874 35.5083 78.4338 35.3856V35.397C79.3605 34.6164 81.0333 33.2388 81.972 32.4926C82.333 32.1942 82.2849 31.7235 81.972 31.3217H81.984ZM72.946 29.3587C72.2119 30.587 71.0446 31.3447 69.7569 31.3447C67.9878 31.3447 66.9649 30.0589 66.9649 28.1648C66.9649 24.4338 70.479 23.7565 73.8005 23.7565V24.7093C73.8005 26.4198 73.8486 27.8318 72.946 29.3587ZM135.045 35.443H130.459C130.242 35.4315 130.037 35.3425 129.886 35.1936C129.734 35.0447 129.647 34.8469 129.641 34.6394L129.629 12.1389C129.65 11.9319 129.752 11.7401 129.915 11.6018C130.078 11.4635 130.29 11.3889 130.508 11.3927H134.768C134.958 11.3977 135.141 11.4622 135.289 11.5763C135.437 11.6904 135.541 11.8478 135.586 12.0241V15.4681H135.682C136.97 12.3915 138.763 10.9221 141.94 10.9221C143 10.8719 144.054 11.0897 144.996 11.5534C145.939 12.0171 146.736 12.7102 147.308 13.5624C148.511 15.3762 148.511 18.3954 148.511 20.5766V34.7427C148.476 34.9423 148.367 35.1232 148.203 35.2519C148.04 35.3806 147.833 35.4485 147.621 35.443H143.011C142.811 35.4346 142.62 35.3602 142.471 35.2325C142.322 35.1048 142.224 34.9317 142.193 34.7427V22.5167C142.193 20.06 142.494 16.4668 139.329 16.4668C138.21 16.4668 137.175 17.1671 136.669 18.2577C136.102 19.6094 135.852 21.063 135.935 22.5167V34.6394C135.926 34.8576 135.827 35.0637 135.661 35.2138C135.495 35.3639 135.274 35.4461 135.045 35.443V35.443ZM115.681 10.9221C122.505 10.9221 126.187 16.5127 126.187 23.6073C126.187 30.4722 122.119 35.9251 115.681 35.9251C108.99 35.9251 105.331 30.3344 105.331 23.3777C105.331 16.375 109.026 10.9221 115.681 10.9221ZM115.729 15.514C112.335 15.514 112.119 19.9222 112.119 22.6659C112.119 25.4096 112.071 31.2758 115.681 31.2758C119.243 31.2758 119.412 26.5461 119.412 23.6647C119.412 21.7705 119.327 19.486 118.726 17.6951C118.208 16.1339 117.185 15.514 115.717 15.514H115.729ZM30.7407 35.443H26.1435C25.9357 35.4359 25.7375 35.3578 25.585 35.2229C25.4326 35.0881 25.3361 34.9054 25.3131 34.7082V12.2078C25.3131 11.7486 25.7223 11.4042 26.2037 11.4042H30.488C30.9333 11.4157 31.2943 11.7486 31.3304 12.1504V15.0892H31.4146C32.5218 12.2422 34.6279 10.9221 37.456 10.9221C40.3323 10.9221 42.1375 12.2422 43.4252 15.0892C43.8819 13.8425 44.7426 12.7667 45.8828 12.0175C47.023 11.2683 48.3835 10.8847 49.7674 10.9221C51.6929 10.9221 53.799 11.6797 55.0867 13.3787C56.5549 15.2729 56.2541 18.0281 56.2541 20.4388V34.6394C56.2541 35.0871 55.8449 35.443 55.3635 35.443H50.7663C50.548 35.4342 50.3416 35.346 50.1894 35.1965C50.0372 35.0471 49.9508 34.8477 49.9479 34.6394V22.7004C49.9479 21.759 50.0322 19.3942 49.8155 18.4987C49.4665 16.9834 48.4436 16.5472 47.1078 16.5472C46.5112 16.566 45.9334 16.7511 45.4458 17.0796C44.9582 17.408 44.5821 17.8654 44.3639 18.3954C43.8825 19.5434 43.9427 21.4261 43.9427 22.7118V34.6394C43.9427 35.0986 43.5455 35.443 43.0521 35.443H38.4549C38.2376 35.4315 38.0328 35.3425 37.8812 35.1936C37.7296 35.0447 37.6422 34.8469 37.6365 34.6394V22.7004C37.6365 20.1978 38.0577 16.5013 34.7964 16.5013C31.4989 16.5013 31.6192 20.1059 31.6192 22.7004V34.6394C31.6192 35.0986 31.2221 35.443 30.7407 35.443V35.443ZM85.8471 15.3647V12.1504C85.8471 11.9373 85.9359 11.7329 86.0939 11.5822C86.2519 11.4315 86.4661 11.3468 86.6896 11.3468H101.817C102.298 11.3468 102.684 11.6682 102.684 12.1504V14.9055C102.684 15.3647 102.274 15.9732 101.552 16.926L93.7298 27.5908C96.6181 27.5219 99.6989 27.9352 102.347 29.3472C102.936 29.6686 103.093 30.1508 103.141 30.6099V34.0424C103.141 34.5016 102.599 35.0526 102.034 34.7771C99.5631 33.5646 96.8242 32.9339 94.0458 32.9379C91.2674 32.9419 88.5304 33.5805 86.0638 34.8001C85.5463 35.0641 84.9927 34.5246 84.9927 34.0539V30.7936C84.9927 30.277 84.9927 29.3816 85.5583 28.5895L94.6204 16.1798H86.7257C86.613 16.1829 86.5009 16.1644 86.3959 16.1254C86.2909 16.0864 86.1951 16.0277 86.1144 15.9527C86.0336 15.8778 85.9693 15.7882 85.9255 15.6891C85.8817 15.5901 85.8591 15.4837 85.8592 15.3762L85.8471 15.3647ZM95.6914 40.1726C94.5843 38.8295 88.3985 39.5413 85.6064 39.8512C84.764 39.9545 84.6437 39.2543 85.4019 38.7377C90.336 35.4315 98.4353 36.3843 99.362 37.4978C100.325 38.6114 99.1213 46.3488 94.488 50.0453C93.7779 50.6193 93.104 50.3093 93.4169 49.5631C94.4639 47.0835 96.7866 41.5273 95.6914 40.1726V40.1726ZM92.0931 44.0873C83.4643 50.1601 70.9603 53.3859 60.1894 53.3859C45.7981 53.4579 31.897 48.4019 21.2093 39.2083C20.403 38.5196 21.1251 37.5667 22.0999 38.0948C33.9731 44.5711 47.4147 47.9745 61.092 47.9674C70.6595 47.9674 81.1657 46.0733 90.8415 42.1587C92.2977 41.5847 93.5252 43.077 92.0931 44.0873V44.0873ZM278.99 36.1317C274.875 36.1317 271.721 35.0526 269.507 32.9059C267.305 30.7477 266.198 27.6596 266.198 23.6417C266.198 19.5319 267.329 16.2946 269.579 13.9527C271.842 11.6108 274.971 10.4399 278.99 10.4399C282.071 10.4399 284.49 11.1517 286.235 12.5752C287.98 14.0101 288.847 15.9043 288.847 18.2806C288.908 19.3357 288.68 20.3877 288.187 21.3336C287.693 22.2795 286.95 23.0867 286.031 23.6761C284.153 24.8815 281.397 25.49 277.751 25.49C275.861 25.49 274.213 25.3178 272.817 24.9734C273.021 27.0971 273.695 28.6125 274.838 29.5308C275.982 30.4492 277.715 30.9084 280.037 30.9084C280.964 30.9084 281.867 30.851 282.745 30.7362C283.624 30.6214 284.851 30.3918 286.404 30.0015C286.583 29.9457 286.769 29.9148 286.957 29.9097C287.523 29.9097 287.8 30.277 287.8 31.0003V33.1814C287.8 33.698 287.727 34.0539 287.583 34.2491C287.353 34.5108 287.048 34.7024 286.705 34.8001C284.245 35.6927 281.634 36.1442 279.002 36.1317H278.99ZM277.354 21.2195C279.039 21.2195 280.266 20.9784 281.036 20.4847C281.794 19.9911 282.18 19.2449 282.18 18.2347C282.18 16.2372 280.928 15.25 278.449 15.25C275.26 15.25 273.418 17.1097 272.913 20.8406C274.237 21.0932 275.717 21.2195 277.354 21.2195ZM224.185 35.42C223.764 35.42 223.439 35.3282 223.246 35.133C223.042 34.9493 222.945 34.6394 222.945 34.2376V12.3456C222.945 11.8978 223.042 11.5879 223.246 11.4272C223.439 11.2435 223.764 11.1631 224.197 11.1631H227.771C228.541 11.1631 228.999 11.5075 229.167 12.1963L229.564 13.4821C231.321 12.38 232.91 11.5879 234.318 11.1287C235.726 10.6695 237.182 10.4399 238.674 10.4399C241.659 10.4399 243.765 11.4616 244.993 13.4821C246.677 12.403 248.278 11.6338 249.77 11.1631C251.263 10.681 252.815 10.4514 254.404 10.4514C256.726 10.4514 258.52 11.0598 259.807 12.2882C261.083 13.528 261.721 15.2614 261.721 17.477V34.2376C261.721 34.6394 261.624 34.9493 261.444 35.133C261.263 35.3282 260.938 35.42 260.481 35.42H255.691C255.27 35.42 254.945 35.3282 254.753 35.133C254.548 34.9493 254.452 34.6394 254.452 34.2376V18.9924C254.452 16.8342 253.441 15.7665 251.419 15.7665C249.614 15.7665 247.809 16.1798 245.992 16.9949V34.2376C245.992 34.6508 245.895 34.9493 245.715 35.133C245.534 35.3282 245.209 35.42 244.752 35.42H239.974C239.541 35.42 239.228 35.3282 239.011 35.133C238.819 34.9493 238.723 34.6508 238.723 34.2376V18.9924C238.723 16.8342 237.712 15.7665 235.69 15.7665C233.825 15.7665 232.007 16.1913 230.214 17.0408V34.2376C230.214 34.6508 230.118 34.9493 229.937 35.133C229.757 35.3282 229.432 35.42 228.975 35.42H224.185ZM213.149 7.40923C212.041 7.45879 210.956 7.10134 210.116 6.41048C209.731 6.06495 209.43 5.64368 209.232 5.17587C209.035 4.70806 208.946 4.20489 208.973 3.70125C208.973 2.55326 209.346 1.65784 210.116 1.00349C210.955 0.311596 212.041 -0.0459994 213.149 0.00474795C214.257 -0.0448152 215.342 0.312633 216.182 1.00349C216.952 1.65784 217.337 2.56474 217.337 3.70125C217.337 4.83775 216.952 5.74465 216.182 6.41048C215.342 7.10134 214.257 7.45879 213.149 7.40923V7.40923ZM210.766 35.42C210.333 35.42 210.02 35.3282 209.816 35.133C209.611 34.9493 209.515 34.6508 209.515 34.2376V12.3456C209.515 11.8978 209.611 11.5879 209.816 11.4272C210.02 11.2435 210.333 11.1631 210.766 11.1631H215.544C216.001 11.1631 216.326 11.2435 216.507 11.4157C216.687 11.5879 216.784 11.8978 216.784 12.3456V34.2376C216.784 34.6508 216.687 34.9493 216.507 35.133C216.326 35.3282 216.001 35.42 215.544 35.42H210.766ZM190.873 35.42C190.44 35.42 190.127 35.3282 189.922 35.133C189.73 34.9493 189.633 34.6508 189.633 34.2376V12.3456C189.633 11.8978 189.73 11.5879 189.922 11.4272C190.127 11.2435 190.44 11.1631 190.873 11.1631H194.459C195.218 11.1631 195.687 11.5075 195.843 12.1963L196.493 14.7678C197.556 13.5775 198.826 12.5715 200.248 11.7945C201.41 11.2141 202.703 10.9145 204.015 10.9221H204.713C205.17 10.9221 205.507 11.0139 205.7 11.1861C205.904 11.3583 206.001 11.6682 206.001 12.1045V16.0995C206.001 16.5127 205.904 16.8112 205.724 16.9949C205.543 17.19 205.218 17.2819 204.761 17.2819C204.46 17.2796 204.158 17.2642 203.858 17.236C203.394 17.2018 202.928 17.1865 202.462 17.19C201.704 17.19 200.778 17.2934 199.682 17.5C198.725 17.6651 197.789 17.9267 196.89 18.2806V34.2376C196.89 34.6508 196.806 34.9493 196.626 35.133C196.433 35.3282 196.108 35.42 195.651 35.42H190.873ZM161.063 45.2008C160.63 45.2008 160.317 45.109 160.113 44.9368C159.92 44.7646 159.824 44.4546 159.824 44.0184V12.3456C159.824 11.8978 159.92 11.5879 160.113 11.4272C160.317 11.2435 160.63 11.1631 161.063 11.1631H164.65C165.408 11.1631 165.877 11.5075 166.034 12.1963L166.395 13.4361C167.438 12.4916 168.664 11.7507 170.005 11.255C171.37 10.7273 172.829 10.4545 174.301 10.4514C177.515 10.4514 180.078 11.5649 181.943 13.815C183.821 16.065 184.759 19.0957 184.759 22.9299C184.759 25.5703 184.29 27.8548 183.363 29.8178C182.562 31.6302 181.255 33.1985 179.585 34.3524C177.978 35.4147 176.063 35.9688 174.109 35.9366C172.786 35.9464 171.472 35.7406 170.222 35.3282C169.071 34.9547 168.008 34.3697 167.093 33.6062V44.0184C167.093 44.4546 166.996 44.7646 166.816 44.9368C166.623 45.109 166.31 45.2008 165.841 45.2008H161.063ZM171.967 30.7247C173.82 30.7247 175.192 30.1163 176.058 28.9224C176.949 27.717 177.382 25.8229 177.382 23.2169C177.382 20.5881 176.961 18.6824 176.095 17.477C175.228 16.2716 173.856 15.6747 171.967 15.6747C170.247 15.669 168.558 16.1095 167.081 16.949V29.439C168.55 30.2981 170.244 30.7438 171.967 30.7247V30.7247Z" fill="white"/>
</svg>
