<svg width="190" height="57" viewBox="0 0 190 57" fill="none" xmlns="http://www.w3.org/2000/svg">
<g clip-path="url(#clip0_157_923)">
<path d="M141.291 55.1729L157.136 37.6619L141.291 20.1484H158.01L165.857 28.6553L173.414 20.1484H189.55L173.78 37.5896L189.766 55.1729H172.979L165.202 46.5961L157.499 55.1729H141.291Z" fill="white"/>
<path d="M141.291 12.2972H123.345V20.1484H141.291V31.9808H123.345V42.8415H141.291V55.1728H110.155V0H141.291V12.2972Z" fill="white"/>
<path d="M97.0206 0V22.5794H96.8761C93.9682 19.292 90.3351 18.1496 86.1196 18.1496C77.4845 18.1496 70.9799 23.9232 68.6966 31.5567C66.0927 23.1457 59.3775 17.992 49.4198 17.992C41.3333 17.992 34.9476 21.5621 31.6152 27.3796V20.1492H14.9001V12.2988H33.141V0H0V55.1736H14.9001V31.9808H29.7515C29.3087 33.6846 29.0725 35.5087 29.0725 37.4335C29.0725 48.9426 38.0116 57.018 49.4198 57.018C59.0132 57.018 65.3352 52.5882 68.6792 44.512H55.9104C54.183 46.9381 52.8729 47.6588 49.4198 47.6588C45.4158 47.6588 41.9636 44.2227 41.9636 40.1497H67.9638C69.0914 49.2911 76.3313 57.1748 86.2666 57.1748C90.5524 57.1748 94.4763 55.1013 96.8761 51.6002H97.0206V55.172H110.155V0H97.0206ZM42.3783 32.1457C43.2068 28.6414 45.9701 26.351 49.4198 26.351C53.2174 26.351 55.8402 28.5707 56.53 32.1457C56.8207 32.1457 42.3783 32.1457 42.3783 32.1457ZM89.0497 46.7724C84.208 46.7724 81.1994 42.3353 81.1994 37.7024C81.1994 32.7502 83.8164 27.9882 89.0497 27.9882C94.4763 27.9882 96.6381 32.7502 96.6381 37.7024C96.6373 42.3987 94.3466 46.7724 89.0497 46.7724Z" fill="white"/>
</g>
<defs>
<clipPath id="clip0_157_923">
<rect width="190" height="56.875" fill="white"/>
</clipPath>
</defs>
</svg>
