<svg width="181" height="61" viewBox="0 0 181 61" fill="none" xmlns="http://www.w3.org/2000/svg">
<path d="M76.8118 31.1115C76.8118 39.5323 70.1824 45.7375 62.0467 45.7375C53.9109 45.7375 47.2815 39.5323 47.2815 31.1115C47.2815 22.6314 53.9109 16.4856 62.0467 16.4856C70.1824 16.4856 76.8118 22.6314 76.8118 31.1115ZM70.3483 31.1115C70.3483 25.8494 66.5061 22.2489 62.0467 22.2489C57.5872 22.2489 53.745 25.8494 53.745 31.1115C53.745 36.321 57.5872 39.9741 62.0467 39.9741C66.5061 39.9741 70.3483 36.3144 70.3483 31.1115Z" fill="white"/>
<path d="M108.665 31.1115C108.665 39.5323 102.035 45.7375 93.8997 45.7375C85.7639 45.7375 79.1345 39.5323 79.1345 31.1115C79.1345 22.638 85.7639 16.4856 93.8997 16.4856C102.035 16.4856 108.665 22.6314 108.665 31.1115ZM102.201 31.1115C102.201 25.8494 98.3591 22.2489 93.8997 22.2489C89.4403 22.2489 85.598 25.8494 85.598 31.1115C85.598 36.321 89.4403 39.9741 93.8997 39.9741C98.3591 39.9741 102.201 36.3144 102.201 31.1115Z" fill="white"/>
<path d="M139.191 17.3692V43.6273C139.191 54.4286 132.78 58.8402 125.202 58.8402C118.068 58.8402 113.775 54.0989 112.155 50.2215L117.783 47.8938C118.785 50.2743 121.24 53.0834 125.195 53.0834C130.046 53.0834 133.052 50.1094 133.052 44.511V42.4074H132.827C131.38 44.1812 128.593 45.7309 125.076 45.7309C117.716 45.7309 110.974 39.3609 110.974 31.1643C110.974 22.9083 117.716 16.4856 125.076 16.4856C128.586 16.4856 131.373 18.0352 132.827 19.7563H133.052V17.3758H139.191V17.3692ZM133.51 31.1643C133.51 26.0142 130.053 22.2489 125.653 22.2489C121.194 22.2489 117.458 26.0142 117.458 31.1643C117.458 36.2616 121.194 39.9741 125.653 39.9741C130.053 39.9741 133.51 36.2616 133.51 31.1643Z" fill="white"/>
<path d="M149.311 1.97827V44.8406H143.006V1.97827H149.311Z" fill="white"/>
<path d="M173.877 35.9252L178.894 39.2487C177.275 41.6292 173.373 45.7308 166.631 45.7308C158.269 45.7308 152.025 39.308 152.025 31.1048C152.025 22.4071 158.322 16.4789 165.907 16.4789C173.546 16.4789 177.282 22.5192 178.503 25.7833L179.173 27.445L159.497 35.5427C161.003 38.4771 163.346 39.974 166.631 39.974C169.922 39.974 172.205 38.365 173.877 35.9252ZM158.435 30.663L171.588 25.236C170.865 23.4094 168.688 22.1367 166.126 22.1367C162.842 22.1367 158.269 25.0184 158.435 30.663V30.663Z" fill="white"/>
<path d="M23.4187 27.3066V21.1015H44.4615C44.6672 22.1829 44.7734 23.4622 44.7734 24.847C44.7734 29.5025 43.4927 35.2592 39.365 39.3608C35.3503 43.5152 30.2206 45.7308 23.4253 45.7308C10.8301 45.7308 0.239014 35.5362 0.239014 23.0204C0.239014 10.5046 10.8301 0.309937 23.4253 0.309937C30.3931 0.309937 35.3569 3.02675 39.0863 6.56784L34.68 10.9464C32.0057 8.45378 28.3824 6.51508 23.4187 6.51508C14.2211 6.51508 7.02767 13.8808 7.02767 23.0204C7.02767 32.1599 14.2211 39.5257 23.4187 39.5257C29.3845 39.5257 32.7821 37.1452 34.9587 34.9823C36.7239 33.2282 37.8852 30.7224 38.3431 27.3L23.4187 27.3066V27.3066Z" fill="white"/>
</svg>
