<svg width="233" height="50" viewBox="0 0 233 50" fill="none" xmlns="http://www.w3.org/2000/svg">
<g clip-path="url(#clip0_157_948)">
<path d="M82.0741 28.3904L80.6882 32.2879H80.5727C80.3418 31.4091 79.9183 30.0717 79.2254 28.4669L71.7956 9.93472H64.5198V39.4715H69.3318V21.2451C69.3318 20.0987 69.3318 18.7996 69.2933 17.1947C69.2548 16.3923 69.1778 15.7809 69.1393 15.3224H69.2548C69.4858 16.4687 69.7553 17.3094 69.9477 17.8443L78.8789 39.3951H82.2666L91.1207 17.6533C91.3132 17.1565 91.5057 16.163 91.6982 15.3224H91.8136C91.6982 17.5004 91.6212 19.4492 91.5827 20.6337V39.3569H96.7027V9.8583H89.6964L82.0741 28.3904V28.3904ZM101.553 18.1882H106.558V39.3569H101.553V18.1882ZM104.094 9.24693C103.247 9.24693 102.554 9.55262 101.977 10.0876C101.399 10.6225 101.091 11.3103 101.091 12.1509C101.091 12.9534 101.399 13.6411 101.977 14.1761C102.554 14.711 103.247 14.9785 104.094 14.9785C104.941 14.9785 105.672 14.6728 106.211 14.1761C106.789 13.6411 107.097 12.9534 107.097 12.1509C107.097 11.3485 106.789 10.6607 106.211 10.0876C105.711 9.55262 104.979 9.24693 104.094 9.24693V9.24693ZM124.305 17.9972C123.381 17.8061 122.418 17.6915 121.494 17.6915C119.223 17.6915 117.144 18.1882 115.412 19.1817C113.68 20.1752 112.294 21.5507 111.408 23.2702C110.484 25.0279 110.022 27.0531 110.022 29.3839C110.022 31.4091 110.484 33.205 111.37 34.848C112.255 36.4529 113.487 37.752 115.142 38.6309C116.721 39.5097 118.569 39.9682 120.647 39.9682C123.034 39.9682 125.074 39.4715 126.691 38.5545L126.73 38.5162V33.931L126.537 34.0838C125.806 34.6188 124.959 35.0773 124.112 35.3448C123.227 35.6504 122.418 35.8033 121.725 35.8033C119.723 35.8033 118.145 35.2301 117.029 33.9692C115.874 32.7464 115.296 31.0652 115.296 28.9636C115.296 26.7856 115.874 25.0661 117.067 23.8052C118.261 22.5442 119.839 21.8946 121.764 21.8946C123.381 21.8946 125.036 22.4296 126.537 23.4995L126.73 23.6523V18.7996L126.691 18.7614C126.037 18.4939 125.305 18.1882 124.305 17.9972V17.9972ZM140.819 17.8443C139.588 17.8443 138.433 18.2264 137.432 19.0288C136.585 19.7166 136.007 20.7101 135.507 21.8946H135.468V18.1882H130.464V39.3569H135.468V28.5433C135.468 26.7092 135.853 25.1807 136.7 24.0726C137.547 22.9263 138.625 22.3532 139.934 22.3532C140.396 22.3532 140.858 22.4678 141.435 22.5442C141.974 22.6971 142.359 22.8499 142.629 23.041L142.821 23.1938V18.2264L142.706 18.1882C142.359 17.9589 141.666 17.8443 140.819 17.8443V17.8443ZM154.447 17.7297C150.944 17.7297 148.134 18.7614 146.17 20.7865C144.169 22.8117 143.206 25.6011 143.206 29.1164C143.206 32.4025 144.207 35.0773 146.132 37.026C148.057 38.9366 150.674 39.93 153.947 39.93C157.373 39.93 160.106 38.8984 162.069 36.835C164.071 34.7716 165.034 32.0204 165.034 28.6197C165.034 25.2572 164.11 22.5824 162.223 20.6337C160.414 18.6849 157.758 17.7297 154.447 17.7297V17.7297ZM158.451 34.0074C157.527 35.1919 156.064 35.7651 154.255 35.7651C152.445 35.7651 150.982 35.1919 149.943 33.931C148.904 32.7464 148.403 31.027 148.403 28.849C148.403 26.5945 148.942 24.8751 149.943 23.6523C150.982 22.4296 152.407 21.8182 154.216 21.8182C155.987 21.8182 157.373 22.3914 158.374 23.5759C159.375 24.7604 159.914 26.4799 159.914 28.7343C159.837 31.027 159.413 32.8229 158.451 34.0074V34.0074ZM176.198 26.9766C174.619 26.3271 173.618 25.8303 173.156 25.41C172.771 25.0279 172.579 24.493 172.579 23.8052C172.579 23.232 172.81 22.6588 173.387 22.2767C173.965 21.8946 174.619 21.7036 175.582 21.7036C176.429 21.7036 177.314 21.8564 178.161 22.0857C179.008 22.315 179.778 22.6588 180.394 23.1174L180.586 23.2702V18.6085L180.471 18.5703C179.893 18.3411 179.123 18.1118 178.199 17.9207C177.275 17.7679 176.429 17.6915 175.736 17.6915C173.349 17.6915 171.385 18.2646 169.846 19.5256C168.306 20.7101 167.574 22.315 167.574 24.1873C167.574 25.1807 167.728 26.0596 168.075 26.7856C168.421 27.5116 168.922 28.1994 169.615 28.7725C170.308 29.3075 171.309 29.9189 172.694 30.492C173.849 30.9888 174.735 31.3709 175.274 31.6765C175.813 31.9822 176.159 32.3261 176.429 32.5936C176.621 32.8993 176.736 33.2814 176.736 33.7781C176.736 35.1919 175.659 35.8797 173.464 35.8797C172.617 35.8797 171.732 35.7269 170.693 35.383C169.653 35.0391 168.691 34.5423 167.882 33.9692L167.69 33.8163V38.6691L167.805 38.7073C168.537 39.0512 169.422 39.2805 170.5 39.5479C171.578 39.739 172.54 39.8918 173.387 39.8918C175.967 39.8918 178.084 39.3187 179.585 38.0577C181.125 36.835 181.933 35.2683 181.933 33.2432C181.933 31.8294 181.549 30.5684 180.702 29.6132C179.585 28.6961 178.199 27.7409 176.198 26.9766V26.9766ZM195.138 17.7297C191.635 17.7297 188.824 18.7614 186.861 20.7865C184.898 22.8117 183.897 25.6011 183.897 29.1164C183.897 32.4025 184.898 35.0773 186.823 37.026C188.747 38.9366 191.365 39.93 194.637 39.93C198.063 39.93 200.797 38.8984 202.76 36.835C204.762 34.7716 205.724 32.0204 205.724 28.6197C205.724 25.2572 204.8 22.5824 202.914 20.6337C201.105 18.6849 198.448 17.7297 195.138 17.7297V17.7297ZM199.103 34.0074C198.179 35.1919 196.716 35.7651 194.907 35.7651C193.059 35.7651 191.635 35.1919 190.595 33.931C189.556 32.7464 189.055 31.027 189.055 28.849C189.055 26.5945 189.594 24.8751 190.595 23.6523C191.635 22.4296 193.059 21.8182 194.868 21.8182C196.601 21.8182 198.025 22.3914 199.026 23.5759C200.027 24.7604 200.566 26.4799 200.566 28.7343C200.566 31.027 200.065 32.8229 199.103 34.0074V34.0074ZM232.479 22.2767V18.1882H227.436V11.9217L227.282 11.9599L222.509 13.3737L222.393 13.4119V18.1882H214.848V15.5135C214.848 14.2907 215.156 13.3355 215.695 12.7241C216.234 12.1127 217.042 11.807 218.043 11.807C218.736 11.807 219.467 11.9599 220.276 12.3038L220.468 12.4184V8.10061L220.353 8.0624C219.66 7.83314 218.736 7.6803 217.543 7.6803C216.041 7.6803 214.732 8.02419 213.539 8.59735C212.346 9.24693 211.46 10.1258 210.806 11.3103C210.151 12.4566 209.805 13.7558 209.805 15.246V18.1882H206.302V22.2385H209.805V39.3569H214.848V22.2767H222.393V33.1668C222.393 37.6374 224.51 39.8918 228.745 39.8918C229.438 39.8918 230.169 39.7772 230.862 39.6626C231.594 39.5097 232.133 39.3187 232.441 39.1658L232.479 39.1276V35.0391L232.287 35.1919C231.979 35.383 231.709 35.5358 231.247 35.6505C230.862 35.7651 230.516 35.8033 230.246 35.8033C229.245 35.8033 228.553 35.574 228.052 35.0009C227.59 34.4659 227.359 33.5871 227.359 32.2879V22.2767H232.479V22.2767Z" fill="white"/>
<path d="M0 0H23.5982V23.4231H0V0Z" fill="white"/>
<path d="M26.0618 0H49.66V23.4231H26.0618V0Z" fill="white"/>
<path d="M0 25.8687H23.5982V49.2917H0V25.8687Z" fill="white"/>
<path d="M26.0618 25.8687H49.66V49.2917H26.0618V25.8687Z" fill="white"/>
</g>
<defs>
<clipPath id="clip0_157_948">
<rect width="232.518" height="49.2917" fill="white"/>
</clipPath>
</defs>
</svg>
