<svg width="186" height="65" viewBox="0 0 186 65" fill="none" xmlns="http://www.w3.org/2000/svg">
<path fill-rule="evenodd" clip-rule="evenodd" d="M152.095 50.5104L163.946 29.9683L175.555 50.5507H185.826L163.946 11.8897L141.985 50.5507L152.095 50.5104ZM143.36 41.6091H132.038L132.078 12.1275H123.383V39.6633L123.343 50.5507H138.103L143.36 41.6091ZM120.472 31.3582C120.512 20.7508 111.776 12.1698 100.979 12.1295C90.179 12.1295 81.4436 20.7105 81.4036 31.2796C81.4036 41.8891 90.1389 50.4702 100.897 50.5104C111.696 50.5104 120.432 41.9273 120.472 31.3582ZM111.37 31.3582C111.37 37.0003 106.721 41.5709 100.939 41.5709H100.937C95.1944 41.5709 90.5034 36.96 90.5435 31.3199C90.5435 25.6778 95.2344 21.0671 100.979 21.1074C106.721 21.1074 111.412 25.7181 111.37 31.3582ZM64.1752 22.5859C64.7818 24.6102 65.1883 26.7152 65.3084 28.3065C65.6327 30.1718 65.7948 31.6826 65.8349 33.153C65.8349 34.6235 65.6708 36.0537 65.4304 37.4434C65.1862 38.8354 64.8239 40.185 64.4195 41.3371C63.5475 44.449 61.9438 46.9869 60.3301 49.5402C59.6981 50.5404 59.0647 51.5428 58.473 52.5831C56.4108 55.0446 54.9552 56.5554 53.2954 57.9453C52.1642 58.898 50.9109 59.734 49.6155 60.4088C48.3222 61.0856 47.3111 61.5227 47.9577 61.0454C48.0379 61.1641 48.0379 60.5296 48.0379 60.5296C47.7044 60.5944 47.3996 60.6865 47.0751 60.7846L46.8645 60.8479L46.7444 60.7673C48.8524 59.4974 50.8302 58.0203 52.6487 56.358C50.651 58.0258 48.4657 59.4523 46.1377 60.6082L44.9245 61.1641C44.7624 61.2427 44.6402 61.283 44.48 61.3636L41.5669 62.4755C41.4867 62.4755 41.3647 62.5158 41.2846 62.5561L38.7359 63.2309C35.138 64.0648 31.3358 64.2642 27.5338 63.7465C4.44094 60.5296 -8.05649 33.3121 5.77444 13.884C9.73867 8.71724 14.3477 4.82356 20.294 2.24116C21.1573 2.03218 21.9508 1.82332 22.7118 1.62312C24.2682 1.21357 25.6886 0.839796 27.2915 0.573316C29.5559 0.138257 31.9044 -0.0631586 34.247 0.0174078C36.6588 0.0664801 39.0589 0.372266 41.4066 0.929883C43.3075 1.53901 44.7636 2.3708 45.9859 3.06892L46.1377 3.15571C48.0432 4.26668 49.9851 5.31343 51.96 6.29402C54.5508 8.12092 56.2887 9.67207 57.8263 11.3399C60.7566 14.5603 62.9269 18.4044 64.1752 22.5859ZM53.2554 50.5567C48.4022 55.9209 42.4578 59.8529 35.3803 60.9667C47.9577 59.6555 58.8775 49.9605 60.5352 37.2058V29.4165C59.2018 20.9965 53.9441 13.8819 46.0157 9.35371C40.7179 6.77144 34.8156 6.13484 28.8692 6.77144C23.6116 8.04036 19.0006 10.6248 15.0364 13.8819C13.7029 15.155 12.3675 16.4664 11.841 18.6901C12.2454 18.1342 12.4496 17.8562 12.4897 17.8562C20.0518 7.04732 35.9048 5.0229 47.5532 12.2543C52.1642 14.877 54.7931 18.253 56.7752 22.7833C56.9252 23.2347 57.0784 23.6829 57.2311 24.1297C58.3958 27.5361 59.531 30.8564 58.9575 34.8631C58.7942 35.6422 58.6934 36.5214 58.5832 37.483C58.3393 39.6092 58.0493 42.1376 56.9353 44.8743C56.3695 45.7257 55.85 46.5468 55.3328 47.3645C54.6679 48.4157 54.0066 49.461 53.2554 50.5567ZM27.6959 3.23628C45.6933 0.692213 64.1752 13.2877 64.4595 31.9605L64.4615 31.9625C64.5816 30.492 64.5816 28.9813 64.4615 27.5108C64.3584 27.0994 64.2554 26.671 64.1496 26.2308C63.5907 23.9079 62.9536 21.2597 61.8327 19.087L61.6909 18.8566C59.7556 15.7149 57.8056 12.5494 55.2395 10.0306C52.6107 7.44624 49.3352 5.49836 46.0197 4.18904C43.3488 3.55244 40.72 2.87776 38.0911 2.24116C22.2761 -0.381518 7.75857 9.98823 3.14566 24.2537C2.45889 27.5108 1.81216 30.7297 1.81216 33.989C3.10549 43.1239 6.82754 50.6353 15.0764 55.6046C13.6491 54.5351 12.2976 53.3667 11.032 52.1077C1.16543 43.0473 -0.21201 28.1474 7.71646 16.5046C8.56924 15.6674 9.22708 14.7417 9.85769 13.8541C10.6929 12.6787 11.4804 11.5703 12.6098 10.8242C16.6941 7.16816 22.4384 4.54561 27.6959 3.23628ZM47.6129 27.768C47.8111 28.4447 47.9916 29.0616 48.1217 29.7768L48.1237 29.7788C48.3679 30.8121 48.448 31.8858 48.4881 32.9976C48.4507 34.1068 48.3153 35.2102 48.0836 36.2951C47.8373 37.0875 47.5009 37.6998 47.2057 38.237C47.1602 38.3199 47.1156 38.401 47.0725 38.4807C46.7482 39.0769 46.6681 39.7537 45.9794 41.1033C45.2654 42.1087 44.3762 42.9165 43.6542 43.5726C43.5198 43.6947 43.3911 43.8115 43.2705 43.9234C41.7333 45.3137 39.9101 46.3454 37.9307 46.9449C37.0446 47.2049 36.1386 47.3902 35.2218 47.4987C34.3329 47.66 33.6042 47.7406 32.9174 47.7406C32.4452 47.7406 32.0076 47.7236 31.5711 47.6789C31.3339 47.6546 31.0969 47.622 30.8551 47.5794C30.2064 47.4605 29.5597 47.3034 28.9932 47.1423C27.5559 46.7547 26.355 46.0581 25.1559 45.3626C24.6344 45.0601 24.1133 44.7579 23.5733 44.4813C22.36 43.5668 21.6332 42.892 20.9445 42.1367C20.46 41.621 20.0556 41.0631 19.7312 40.4667C19.3688 39.8725 19.1667 39.4355 19.4088 39.7114C19.3268 39.7517 19.6511 39.7517 19.6511 39.7517C19.6111 39.6329 19.51 39.5338 19.409 39.4345C19.3079 39.3353 19.2067 39.236 19.1667 39.1171L19.2467 39.0366C19.7924 39.9317 20.5664 40.7274 21.3052 41.4866L21.5512 41.7398C18.8822 38.6398 17.3866 34.587 17.9113 30.3751C19.2847 19.7253 32.1865 13.7266 41.5686 19.963C44.0773 21.7517 45.9774 23.8566 47.2727 26.5599C47.3877 26.999 47.503 27.3927 47.6129 27.768ZM38.5891 22.4425L38.4954 22.3883C42.4997 25.7642 46.7062 31.1667 43.1483 37.0083C41.933 39.1555 39.4243 42.8497 37.2019 43.6434C36.2303 43.9993 35.5547 44.3463 34.9933 44.6346C34.3632 44.9581 33.877 45.2078 33.2777 45.3133C33.7243 45.2729 34.2088 45.273 34.6532 45.273C38.6575 44.5982 42.0152 42.1346 44.1173 38.4404C45.2886 36.0151 45.5729 33.2736 45.2085 30.5322C44.5619 28.109 43.2685 26.004 41.6908 24.2153C41.0441 23.619 40.3974 23.0228 39.3443 22.7851C40.0561 23.2888 39.8797 23.1871 38.5891 22.4425ZM19.3668 33.8295C20.0135 39.6711 24.7466 44.717 30.8932 45.3515V45.3536H31.7821C30.7743 45.1713 30.0279 44.835 29.1889 44.4571C28.748 44.2585 28.2814 44.0483 27.7378 43.8428C27.2722 43.5446 26.6962 43.1871 26.1201 42.8295C25.544 42.472 24.9678 42.1145 24.5023 41.8164C21.8736 39.5905 19.9314 37.0888 19.3668 33.8295ZM46.94 36.8713C47.1051 36.1655 47.2697 35.462 47.433 34.7441V34.7462C48.5261 27.4342 43.4707 20.8372 36.6754 18.7725C35.1398 18.4946 33.562 18.2146 32.0244 18.2548C27.6577 18.9317 24.0178 21.2744 21.7514 24.612C22.2613 23.9272 22.8157 23.2772 23.4112 22.6662C27.6577 18.0172 35.0977 17.3021 40.7198 20.8372C41.1167 21.228 41.5733 21.5533 42.0164 21.8691C42.6104 22.2923 43.1804 22.6984 43.5508 23.2221C45.1284 25.3271 46.4219 27.4342 47.0706 29.8574C48.404 38.1624 42.2574 46.544 33.2777 46.7838C33.5736 46.7993 33.8893 46.8609 34.2088 46.9233C34.6761 47.0146 35.1514 47.1075 35.5843 47.0596C35.7671 47.0135 35.9561 46.9674 36.1492 46.9201C37.2793 46.6438 38.5523 46.3326 39.5885 45.7906C41.1242 44.8762 42.6618 43.9234 43.8751 42.6906C45.0884 41.4598 45.9774 39.9108 46.584 38.4001C46.7028 37.8852 46.8216 37.3776 46.94 36.8713Z" fill="white"/>
</svg>
