<svg width="161" height="61" viewBox="0 0 161 61" fill="none" xmlns="http://www.w3.org/2000/svg">
<g clip-path="url(#clip0_145_889)">
<path d="M131.68 58.4009C146.839 58.4009 159.173 45.8944 159.173 30.5245C159.173 15.1455 146.839 2.64819 131.68 2.64819C116.518 2.64819 104.187 15.1455 104.187 30.5245C104.187 45.8944 116.518 58.4009 131.68 58.4009ZM131.68 20.5843C137.082 20.5843 141.482 25.0433 141.482 30.5215C141.482 35.9997 137.079 40.4526 131.677 40.4526C126.272 40.4526 121.878 35.9997 121.878 30.5185C121.878 25.0342 126.275 20.5782 131.677 20.5782L131.68 20.5843ZM27.9521 58.4009C43.1111 58.4009 55.4455 45.8944 55.4455 30.5245C55.4455 15.1455 43.1111 2.64819 27.9521 2.64819C12.7961 2.64819 0.45874 15.1455 0.45874 30.5245C0.45874 45.8944 12.7961 58.4009 27.9521 58.4009ZM27.9521 20.5843C33.3574 20.5843 37.7539 25.0433 37.7539 30.5215C37.7539 35.9997 33.3574 40.4526 27.9521 40.4526C22.5498 40.4526 18.1563 35.9997 18.1563 30.5185C18.1563 25.0342 22.5528 20.5782 27.9521 20.5782V20.5843ZM79.801 19.9564L71.3603 3.01219H51.597L70.0564 40.0795V57.5303H89.5487V40.0795L108.008 3.01219H88.2357L79.804 19.9564H79.801Z" fill="white"/>
</g>
<defs>
<clipPath id="clip0_145_889">
<rect width="159.6" height="60.6667" fill="white" transform="translate(0.45874 0.3125)"/>
</clipPath>
</defs>
</svg>
