<svg width="217" height="53" viewBox="0 0 217 53" fill="none" xmlns="http://www.w3.org/2000/svg">
<path d="M192.768 0C190.788 0 189.204 1.11578 189.204 2.47649L190.41 16.2287C190.545 17.0633 191.553 17.6983 192.768 17.6983C193.992 17.6983 194.991 17.0633 195.126 16.2287L196.341 2.47649C196.341 1.11578 194.757 0 192.768 0V0ZM0 11.0308C0 11.0308 5.37316 33.2285 6.22818 36.8389C7.23621 41.039 9.03627 42.5902 14.2384 41.547L17.5955 27.7857C18.4415 24.3658 19.0176 21.9256 19.5666 18.4421H19.6566C20.0436 21.9618 20.5926 24.3748 21.2856 27.7857L23.3557 37.3197C24.0577 40.6035 26.0108 42.6718 31.0959 41.547L39.1062 11.0308H32.644L29.9169 24.2297C29.1789 28.0669 28.5128 31.0604 27.9998 34.5711H27.9098C27.4418 31.0967 26.8478 28.2211 26.1098 24.4746L23.2567 11.0308H16.5335L13.4914 24.139C12.6274 28.1213 11.8263 31.3326 11.3133 34.7253H11.2233C10.6186 31.0204 9.95854 27.3249 9.24327 23.64C9.24327 23.64 7.43422 14.2693 6.7952 11.0308H0ZM61.5438 11.0308V41.547H67.691V11.0308H61.5438ZM148.126 11.0308V33.546C148.126 36.6484 148.702 38.8165 149.935 40.15C151.015 41.3111 152.807 42.055 154.94 42.055C156.758 42.055 158.549 41.7103 159.395 41.3928L159.305 36.5577C158.684 36.7119 157.964 36.8298 156.974 36.8298C154.886 36.8298 154.184 35.4873 154.184 32.6933V24.0845H159.539V18.2516H154.184V11.0308H148.126ZM173.129 11.0308C172.103 11.058 170.933 11.8472 170.186 13.1444C169.196 14.8771 169.367 16.8184 170.528 17.4987L182.948 23.3225C183.722 23.6128 184.775 23.0504 185.387 21.9981C185.999 20.9368 185.955 19.7303 185.306 19.2041L174.092 11.2757C173.8 11.1051 173.467 11.0203 173.129 11.0308V11.0308ZM212.406 11.0308C212.072 11.0215 211.741 11.1063 211.452 11.2757L200.229 19.2041C199.59 19.7303 199.545 20.9277 200.148 21.9891V21.9981C200.76 23.0595 201.813 23.6128 202.587 23.3225L215.007 17.4896C216.177 16.8184 216.348 14.8771 215.367 13.1444C214.611 11.8472 213.441 11.058 212.406 11.0308V11.0308ZM47.8094 18.1065C43.9933 18.1065 40.9602 19.1951 39.3042 20.1476L40.5102 24.3204C42.0222 23.3679 44.4343 22.5696 46.7204 22.5696C50.4915 22.5605 51.1125 24.7195 51.1125 26.1075V26.434C42.8773 26.425 37.6841 29.2915 37.6841 35.1426C37.6841 38.7167 40.3302 42.064 44.9293 42.064C47.7644 42.064 50.1315 40.921 51.5535 39.0977H51.6885C51.6885 39.0977 52.6336 43.0619 57.8087 41.547C57.5371 39.7157 57.4167 37.8648 57.4487 36.0134V27.8673C57.4487 22.6785 55.2436 18.1065 47.8094 18.1065V18.1065ZM84.5845 18.1065C80.7324 18.1065 79.0043 20.075 77.9603 21.7351H77.8703V18.6236H72.0021V41.547H78.1763V28.1032C78.1763 27.4682 78.2483 26.806 78.4733 26.2254C78.9773 24.8738 80.2284 23.2863 82.2264 23.2863C84.7195 23.2863 85.8805 25.418 85.8805 28.4842V41.547H92.0547V27.9399C92.0547 27.3412 92.1447 26.6155 92.3157 26.0802C92.5563 25.2762 93.0462 24.571 93.7135 24.0681C94.3809 23.5653 95.1906 23.2912 96.0238 23.2863C98.5439 23.2863 99.7679 25.3727 99.7679 28.9831V41.547H105.942V28.0487C105.942 20.9277 102.351 18.1065 98.3099 18.1065C96.5099 18.1065 95.0968 18.5601 93.8188 19.3493C92.7387 20.0206 91.7757 20.964 90.9387 22.2068H90.8487C89.8677 19.7393 87.5726 18.1065 84.5845 18.1065V18.1065ZM118.516 18.1065C114.69 18.1065 111.666 19.1951 110.01 20.1476L111.216 24.3204C112.728 23.3679 115.14 22.5696 117.426 22.5696C121.198 22.5605 121.81 24.7195 121.81 26.1075V26.434C113.583 26.425 108.39 29.2915 108.39 35.1426C108.39 38.7167 111.036 42.064 115.635 42.064C118.47 42.064 120.838 40.921 122.251 39.0977H122.395C122.395 39.0977 123.331 43.0619 128.515 41.547C128.243 39.7157 128.123 37.8648 128.155 36.0134V27.8673C128.155 22.6785 125.95 18.1065 118.516 18.1065ZM144.175 18.1065C141.808 18.1065 139.117 19.6486 137.983 22.9506H137.812V18.6236H132.25V41.547H138.595V29.8086C138.595 29.1736 138.631 28.6293 138.73 28.1213C139.198 25.6539 141.07 24.0845 143.743 24.0845C144.481 24.0845 145.003 24.1662 145.57 24.2478V18.2516C145.112 18.1495 144.644 18.1008 144.175 18.1065ZM183.416 29.1736C183.256 29.1735 183.097 29.2043 182.948 29.2643L170.528 35.0791C169.358 35.7594 169.187 37.7007 170.186 39.4333C171.176 41.1569 172.931 41.9824 174.092 41.3111L185.306 33.3827C185.955 32.8384 186 31.6501 185.396 30.5797C184.901 29.7179 184.109 29.1917 183.416 29.1827V29.1736ZM202.128 29.1736C201.435 29.1917 200.643 29.7179 200.148 30.5887C199.545 31.6501 199.59 32.8475 200.238 33.3827L211.452 41.3111C212.613 41.9824 214.359 41.166 215.358 39.4333C216.348 37.7007 216.177 35.7594 215.007 35.0791L202.587 29.2552C202.44 29.2026 202.284 29.178 202.128 29.1827V29.1736ZM51.3105 30.498V33.3555C51.3197 33.7751 51.2682 34.1937 51.1575 34.5983C50.8613 35.4655 50.3003 36.2161 49.555 36.7424C48.8097 37.2687 47.9183 37.5438 47.0084 37.5283C45.2983 37.5283 43.9483 36.5577 43.9483 34.4985C43.9483 31.3507 47.3954 30.4799 51.3105 30.498V30.498ZM122.008 30.498V33.3555C122.016 33.775 121.965 34.1936 121.855 34.5983C121.559 35.4641 120.999 36.2135 120.256 36.7397C119.512 37.2659 118.623 37.5419 117.714 37.5283C116.004 37.5283 114.654 36.5577 114.654 34.4985C114.654 31.3507 118.092 30.4799 122.008 30.498ZM192.768 34.8795C191.553 34.8795 190.545 35.5145 190.41 36.3491L189.204 50.1013C189.204 51.462 190.788 52.5778 192.768 52.5778C194.757 52.5778 196.341 51.462 196.341 50.1013L195.126 36.3491C194.991 35.5145 193.992 34.8795 192.768 34.8795V34.8795Z" fill="white"/>
</svg>
