<svg width="685" height="362" viewBox="0 0 685 362" fill="none" xmlns="http://www.w3.org/2000/svg">
<g clip-path="url(#clip0_210_377)">
<path d="M599.058 317.177C581.174 317.02 563.32 315.71 545.605 313.255C544.982 313.169 544.36 313.076 543.738 312.99L544.674 145.527C545.292 145.036 545.917 144.552 546.55 144.083C548.644 142.519 550.797 141.054 553.025 139.709C563.758 133.243 576.324 130.283 584.994 133.25L585.128 133.303C587.027 133.943 588.78 134.952 590.287 136.272C597.901 143.034 596.632 156.708 590.486 169.117C602.67 157.987 618.045 149.125 631.768 148.452C645.154 147.791 654.716 154.79 662.842 162.381C663.111 162.63 663.372 162.879 663.633 163.128C663.767 163.249 663.894 163.377 664.029 163.497C670.221 169.42 676.326 176.324 675.588 186.318C674.776 197.279 665.595 209.431 654.896 217.952C644.204 226.472 632.058 232.134 620.204 237.874C608.358 243.62 596.209 249.838 586.083 259.059C601.883 246.569 619.859 236.499 637.343 232.779C654.826 229.059 671.618 232.333 679.852 243.464C682.274 246.844 683.852 250.754 684.454 254.868C684.533 255.349 684.598 255.836 684.655 256.332C685.828 266.636 682.264 278.94 673.744 289.408C664.363 300.936 650.457 308.928 637.255 312.905C624.053 316.881 611.344 317.305 599.058 317.177Z" fill="#F2F2F2"/>
<path d="M544.327 207.613L544.345 204.411C544.981 203.394 545.609 202.373 546.23 201.346C546.631 200.711 547.017 200.068 547.411 199.425C553.899 188.803 560.122 178.115 566.08 167.361C572.044 156.616 577.732 145.817 583.146 134.964C583.271 134.677 583.494 134.442 583.774 134.301C584.054 134.16 584.375 134.122 584.681 134.193C584.721 134.204 584.759 134.222 584.793 134.246C585.077 134.397 585.195 134.736 584.952 135.23C584.285 136.561 583.617 137.9 582.935 139.231C577.428 150.113 571.647 160.949 565.591 171.738C559.537 182.52 553.216 193.24 546.628 203.898C546.492 204.123 546.348 204.347 546.212 204.571C545.584 205.588 544.955 206.597 544.327 207.613Z" fill="white"/>
<path d="M544.096 248.901L544.107 246.921C544.732 246.475 545.357 246.036 545.983 245.589C560.698 235.096 575.414 224.605 590.13 214.117C614.222 196.941 638.314 179.769 662.406 162.603C662.535 162.502 662.683 162.426 662.842 162.381C663.375 162.234 663.688 162.626 663.633 163.128C663.603 163.34 663.528 163.542 663.413 163.723C663.298 163.903 663.146 164.057 662.967 164.174C649.456 173.804 635.95 183.432 622.45 193.057C598.478 210.143 574.509 227.228 550.543 244.31C549.021 245.396 547.493 246.483 545.971 247.569C545.346 248.016 544.721 248.463 544.096 248.901Z" fill="white"/>
<path d="M555.596 293.015C552.259 292.914 548.975 292.693 545.721 292.405C545.099 292.349 544.476 292.293 543.854 292.237L543.866 290.159C544.488 290.223 545.11 290.286 545.732 290.342C550.433 290.781 555.187 291.093 560.07 291.135C573.608 291.19 587.116 289.871 600.388 287.198C614.678 284.356 628.693 280.276 642.275 275.003C656.599 269.47 670.458 262.798 683.717 255.052C683.933 254.906 684.194 254.841 684.453 254.868C685.046 254.954 685.221 255.742 684.655 256.332C684.544 256.448 684.417 256.549 684.278 256.63C682.63 257.588 680.977 258.529 679.32 259.452C665.986 266.913 652.08 273.298 637.732 278.548C624.105 283.549 610.069 287.353 595.782 289.917C582.528 292.318 569.062 293.357 555.596 293.015V293.015Z" fill="white"/>
<path d="M539.098 8.5249e-09H83.7887C82.0545 0.00157691 80.3917 0.691143 79.1654 1.91733C77.9392 3.14352 77.2496 4.80613 77.248 6.5402V315.04C77.2496 316.774 77.9392 318.436 79.1654 319.662C80.3917 320.889 82.0545 321.578 83.7887 321.58H539.098C540.044 321.58 540.978 321.375 541.837 320.978C542.696 320.582 543.458 320.004 544.072 319.285C544.123 319.228 544.171 319.168 544.214 319.105C544.604 318.627 544.921 318.094 545.152 317.522C545.481 316.736 545.649 315.892 545.646 315.04V6.54025C545.645 4.80495 544.954 3.14138 543.726 1.91504C542.498 0.688705 540.834 -8.84796e-05 539.098 8.5249e-09V8.5249e-09ZM543.779 315.04C543.78 315.952 543.511 316.844 543.006 317.605C542.558 318.274 541.949 318.82 541.236 319.195C540.575 319.536 539.842 319.714 539.098 319.712H83.7887C82.5498 319.711 81.362 319.218 80.486 318.342C79.6099 317.466 79.1171 316.278 79.1156 315.04V6.54025C79.1171 5.30144 79.6099 4.1138 80.486 3.23783C81.362 2.36185 82.5498 1.86908 83.7887 1.86757H539.098C540.338 1.86741 541.528 2.35941 542.405 3.23553C543.283 4.11164 543.777 5.30022 543.779 6.54025V315.04Z" fill="#3F3D56"/>
<path d="M544.709 26.2127H78.1802V28.0824H544.709V26.2127Z" fill="#3F3D56"/>
<path d="M94.0739 19.6315C97.172 19.6315 99.6835 17.1203 99.6835 14.0225C99.6835 10.9247 97.172 8.41351 94.0739 8.41351C90.9758 8.41351 88.4644 10.9247 88.4644 14.0225C88.4644 17.1203 90.9758 19.6315 94.0739 19.6315Z" fill="#3F3D56"/>
<path d="M110.201 19.6315C113.299 19.6315 115.811 17.1203 115.811 14.0225C115.811 10.9247 113.299 8.41351 110.201 8.41351C107.103 8.41351 104.592 10.9247 104.592 14.0225C104.592 17.1203 107.103 19.6315 110.201 19.6315Z" fill="#3F3D56"/>
<path d="M126.329 19.6315C129.427 19.6315 131.938 17.1203 131.938 14.0225C131.938 10.9247 129.427 8.41351 126.329 8.41351C123.231 8.41351 120.719 10.9247 120.719 14.0225C120.719 17.1203 123.231 19.6315 126.329 19.6315Z" fill="#3F3D56"/>
<path d="M428.533 69.4911H194.503C191.917 69.4911 189.436 68.4638 187.608 66.6353C185.779 64.8068 184.751 62.3267 184.751 59.7408C184.751 57.1548 185.779 54.6748 187.608 52.8463C189.436 51.0177 191.917 49.9905 194.503 49.9905H428.533C431.119 49.9905 433.6 51.0177 435.428 52.8463C437.257 54.6748 438.285 57.1548 438.285 59.7408C438.285 62.3267 437.257 64.8068 435.428 66.6353C433.6 68.4638 431.119 69.4911 428.533 69.4911ZM194.503 51.4905C192.314 51.4905 190.216 52.3597 188.668 53.907C187.121 55.4542 186.252 57.5527 186.252 59.7408C186.252 61.9289 187.121 64.0274 188.668 65.5746C190.216 67.1218 192.314 67.991 194.503 67.991H428.533C430.722 67.991 432.82 67.1218 434.368 65.5746C435.915 64.0274 436.784 61.9289 436.784 59.7408C436.784 57.5527 435.915 55.4542 434.368 53.907C432.82 52.3597 430.722 51.4905 428.533 51.4905H194.503Z" fill="#3F3D56"/>
<path d="M196.458 129.118H175.455C173.863 129.118 172.337 128.486 171.212 127.361C170.086 126.235 169.454 124.709 169.454 123.118C169.454 121.526 170.086 120 171.212 118.875C172.337 117.75 173.863 117.118 175.455 117.118H196.458C198.049 117.118 199.575 117.75 200.701 118.875C201.826 120 202.458 121.526 202.458 123.118C202.458 124.709 201.826 126.235 200.701 127.361C199.575 128.486 198.049 129.118 196.458 129.118Z" fill="#CCCCCC"/>
<path d="M221.211 149.369H175.455C173.863 149.369 172.337 148.736 171.212 147.611C170.086 146.486 169.454 144.96 169.454 143.368C169.454 141.777 170.086 140.251 171.212 139.126C172.337 138 173.863 137.368 175.455 137.368H221.211C222.802 137.368 224.329 138 225.454 139.126C226.579 140.251 227.212 141.777 227.212 143.368C227.212 144.96 226.579 146.486 225.454 147.611C224.329 148.736 222.802 149.369 221.211 149.369Z" fill="#CCCCCC"/>
<path d="M200.208 217.621H179.205C177.614 217.621 176.088 216.988 174.962 215.863C173.837 214.738 173.205 213.212 173.205 211.62C173.205 210.029 173.837 208.503 174.962 207.378C176.088 206.252 177.614 205.62 179.205 205.62H200.208C201.8 205.62 203.326 206.252 204.451 207.378C205.577 208.503 206.209 210.029 206.209 211.62C206.209 213.212 205.577 214.738 204.451 215.863C203.326 216.988 201.8 217.621 200.208 217.621Z" fill="#CCCCCC"/>
<path d="M224.961 237.871H179.205C177.614 237.871 176.088 237.239 174.962 236.114C173.837 234.989 173.205 233.462 173.205 231.871C173.205 230.28 173.837 228.754 174.962 227.628C176.088 226.503 177.614 225.871 179.205 225.871H224.961C226.553 225.871 228.079 226.503 229.205 227.628C230.33 228.754 230.962 230.28 230.962 231.871C230.962 233.462 230.33 234.989 229.205 236.114C228.079 237.239 226.553 237.871 224.961 237.871Z" fill="#CCCCCC"/>
<path d="M338.226 215.371H317.223C315.632 215.371 314.106 214.738 312.98 213.613C311.855 212.488 311.223 210.962 311.223 209.37C311.223 207.779 311.855 206.253 312.98 205.128C314.106 204.002 315.632 203.37 317.223 203.37H338.226C339.818 203.37 341.344 204.002 342.469 205.128C343.595 206.253 344.227 207.779 344.227 209.37C344.227 210.962 343.595 212.488 342.469 213.613C341.344 214.738 339.818 215.371 338.226 215.371Z" fill="#CCCCCC"/>
<path d="M362.979 235.621H317.223C315.632 235.621 314.106 234.989 312.98 233.864C311.855 232.739 311.223 231.212 311.223 229.621C311.223 228.03 311.855 226.503 312.98 225.378C314.106 224.253 315.632 223.621 317.223 223.621H362.979C364.571 223.621 366.097 224.253 367.223 225.378C368.348 226.503 368.98 228.03 368.98 229.621C368.98 231.212 368.348 232.739 367.223 233.864C366.097 234.989 364.571 235.621 362.979 235.621Z" fill="#CCCCCC"/>
<path d="M335.976 132.868H314.973C313.382 132.868 311.856 132.236 310.73 131.111C309.605 129.985 308.973 128.459 308.973 126.868C308.973 125.277 309.605 123.75 310.73 122.625C311.856 121.5 313.382 120.868 314.973 120.868H335.976C337.568 120.868 339.094 121.5 340.219 122.625C341.345 123.75 341.977 125.277 341.977 126.868C341.977 128.459 341.345 129.985 340.219 131.111C339.094 132.236 337.568 132.868 335.976 132.868Z" fill="#CCCCCC"/>
<path d="M360.729 153.119H314.973C313.382 153.119 311.856 152.487 310.73 151.361C309.605 150.236 308.973 148.71 308.973 147.118C308.973 145.527 309.605 144.001 310.73 142.876C311.856 141.75 313.382 141.118 314.973 141.118H360.729C362.321 141.118 363.847 141.75 364.973 142.876C366.098 144.001 366.73 145.527 366.73 147.118C366.73 148.71 366.098 150.236 364.973 151.361C363.847 152.487 362.321 153.119 360.729 153.119Z" fill="#CCCCCC"/>
<path d="M476.244 128.368H455.242C453.65 128.368 452.124 127.736 450.998 126.611C449.873 125.485 449.241 123.959 449.241 122.368C449.241 120.776 449.873 119.25 450.998 118.125C452.124 117 453.65 116.368 455.242 116.368H476.244C477.836 116.368 479.362 117 480.487 118.125C481.613 119.25 482.245 120.776 482.245 122.368C482.245 123.959 481.613 125.485 480.487 126.611C479.362 127.736 477.836 128.368 476.244 128.368Z" fill="#CCCCCC"/>
<path d="M500.998 148.619H455.242C453.65 148.619 452.124 147.986 450.998 146.861C449.873 145.736 449.241 144.21 449.241 142.618C449.241 141.027 449.873 139.501 450.998 138.376C452.124 137.25 453.65 136.618 455.242 136.618H500.998C502.589 136.618 504.115 137.25 505.241 138.376C506.366 139.501 506.998 141.027 506.998 142.618C506.998 144.21 506.366 145.736 505.241 146.861C504.115 147.986 502.589 148.619 500.998 148.619Z" fill="#CCCCCC"/>
<path d="M138.399 155.744C150.827 155.744 160.902 145.67 160.902 133.243C160.902 120.816 150.827 110.742 138.399 110.742C125.971 110.742 115.896 120.816 115.896 133.243C115.896 145.67 125.971 155.744 138.399 155.744Z" fill="#862513"/>
<path d="M148.9 143.368H127.898C127.301 143.368 126.729 143.131 126.307 142.709C125.885 142.287 125.648 141.715 125.647 141.118V125.368C125.648 124.771 125.885 124.199 126.307 123.778C126.729 123.356 127.301 123.119 127.898 123.118H133.81C134.195 123.116 134.573 123.214 134.909 123.402C135.245 123.589 135.526 123.86 135.727 124.188L137.376 126.868H148.9C149.497 126.869 150.069 127.106 150.491 127.528C150.913 127.95 151.15 128.522 151.151 129.118V141.118C151.15 141.715 150.913 142.287 150.491 142.709C150.069 143.131 149.497 143.368 148.9 143.368V143.368ZM127.898 124.618C127.699 124.618 127.508 124.697 127.368 124.838C127.227 124.978 127.148 125.169 127.148 125.368V141.118C127.148 141.317 127.227 141.508 127.368 141.648C127.508 141.789 127.699 141.868 127.898 141.868H148.9C149.099 141.868 149.29 141.789 149.431 141.648C149.571 141.508 149.65 141.317 149.651 141.118V129.118C149.65 128.919 149.571 128.729 149.431 128.588C149.29 128.447 149.099 128.368 148.9 128.368H136.538L134.449 124.975C134.383 124.865 134.289 124.775 134.177 124.712C134.065 124.65 133.939 124.617 133.81 124.618H127.898Z" fill="white"/>
<path d="M276.417 159.494C288.845 159.494 298.92 149.42 298.92 136.993C298.92 124.566 288.845 114.492 276.417 114.492C263.989 114.492 253.914 124.566 253.914 136.993C253.914 149.42 263.989 159.494 276.417 159.494Z" fill="#862513"/>
<path d="M286.168 151.244H266.666C266.069 151.243 265.497 151.006 265.075 150.584C264.653 150.162 264.416 149.59 264.416 148.994V124.993C264.416 124.396 264.653 123.824 265.075 123.403C265.497 122.981 266.069 122.744 266.666 122.743H280.797C281.31 122.743 281.807 122.918 282.207 123.239L287.578 127.555C287.841 127.765 288.053 128.032 288.199 128.335C288.344 128.639 288.419 128.972 288.419 129.308V148.994C288.418 149.59 288.181 150.162 287.759 150.584C287.337 151.006 286.765 151.243 286.168 151.244V151.244ZM266.666 124.243C266.467 124.243 266.276 124.322 266.136 124.463C265.995 124.603 265.916 124.794 265.916 124.993V148.994C265.916 149.193 265.995 149.383 266.136 149.524C266.276 149.664 266.467 149.743 266.666 149.744H286.168C286.367 149.743 286.558 149.664 286.698 149.524C286.839 149.383 286.918 149.193 286.918 148.994V129.308C286.919 129.196 286.894 129.085 286.845 128.984C286.797 128.883 286.726 128.794 286.638 128.724L281.267 124.408C281.133 124.301 280.968 124.243 280.797 124.243H266.666Z" fill="white"/>
<path d="M282.418 133.243H270.416C270.217 133.243 270.026 133.164 269.886 133.024C269.745 132.883 269.666 132.692 269.666 132.493C269.666 132.294 269.745 132.103 269.886 131.963C270.026 131.822 270.217 131.743 270.416 131.743H282.418C282.617 131.743 282.807 131.822 282.948 131.963C283.089 132.103 283.168 132.294 283.168 132.493C283.168 132.692 283.089 132.883 282.948 133.024C282.807 133.164 282.617 133.243 282.418 133.243Z" fill="white"/>
<path d="M282.418 137.743H270.416C270.217 137.743 270.026 137.664 269.886 137.524C269.745 137.383 269.666 137.192 269.666 136.993C269.666 136.794 269.745 136.604 269.886 136.463C270.026 136.322 270.217 136.243 270.416 136.243H282.418C282.617 136.243 282.807 136.322 282.948 136.463C283.089 136.604 283.168 136.794 283.168 136.993C283.168 137.192 283.089 137.383 282.948 137.524C282.807 137.664 282.617 137.743 282.418 137.743Z" fill="white"/>
<path d="M282.418 142.243H270.416C270.217 142.243 270.026 142.164 269.886 142.024C269.745 141.883 269.666 141.692 269.666 141.493C269.666 141.295 269.745 141.104 269.886 140.963C270.026 140.822 270.217 140.743 270.416 140.743H282.418C282.617 140.743 282.807 140.822 282.948 140.963C283.089 141.104 283.168 141.295 283.168 141.493C283.168 141.692 283.089 141.883 282.948 142.024C282.807 142.164 282.617 142.243 282.418 142.243Z" fill="white"/>
<path d="M415.185 154.994C427.613 154.994 437.688 144.92 437.688 132.493C437.688 120.066 427.613 109.992 415.185 109.992C402.757 109.992 392.682 120.066 392.682 132.493C392.682 144.92 402.757 154.994 415.185 154.994Z" fill="#862513"/>
<path d="M425.686 140.743H404.683C404.087 140.743 403.515 140.505 403.093 140.084C402.671 139.662 402.434 139.09 402.433 138.493V126.493C402.434 125.896 402.671 125.324 403.093 124.903C403.515 124.481 404.087 124.244 404.683 124.243H425.686C426.283 124.244 426.855 124.481 427.277 124.903C427.698 125.324 427.936 125.896 427.936 126.493V138.493C427.936 139.09 427.698 139.662 427.277 140.084C426.855 140.505 426.283 140.743 425.686 140.743V140.743ZM404.683 125.743C404.485 125.743 404.294 125.822 404.153 125.963C404.013 126.103 403.933 126.294 403.933 126.493V138.493C403.933 138.692 404.013 138.883 404.153 139.023C404.294 139.164 404.485 139.243 404.683 139.243H425.686C425.885 139.243 426.076 139.164 426.216 139.023C426.357 138.883 426.436 138.692 426.436 138.493V126.493C426.436 126.294 426.357 126.103 426.216 125.963C426.076 125.822 425.885 125.743 425.686 125.743H404.683Z" fill="white"/>
<path d="M415.185 134.472C414.763 134.472 414.35 134.355 413.992 134.132L402.785 127.129C402.617 127.023 402.498 126.855 402.453 126.662C402.409 126.468 402.443 126.265 402.548 126.096C402.654 125.928 402.821 125.808 403.015 125.763C403.209 125.718 403.412 125.752 403.581 125.857L414.788 132.86C414.907 132.934 415.045 132.973 415.185 132.973C415.325 132.973 415.463 132.934 415.582 132.86L426.789 125.857C426.957 125.752 427.161 125.718 427.354 125.763C427.548 125.808 427.716 125.928 427.821 126.096C427.927 126.265 427.961 126.468 427.916 126.662C427.872 126.855 427.752 127.023 427.584 127.129L416.378 134.132C416.02 134.355 415.606 134.473 415.185 134.472V134.472Z" fill="white"/>
<path d="M138.399 244.246C150.827 244.246 160.902 234.173 160.902 221.746C160.902 209.319 150.827 199.245 138.399 199.245C125.971 199.245 115.896 209.319 115.896 221.746C115.896 234.173 125.971 244.246 138.399 244.246Z" fill="#862513"/>
<path d="M148.9 229.996H127.898C127.301 229.995 126.729 229.758 126.307 229.336C125.885 228.915 125.648 228.343 125.647 227.746V215.746C125.648 215.149 125.885 214.577 126.307 214.155C126.729 213.734 127.301 213.496 127.898 213.496H148.9C149.497 213.496 150.069 213.734 150.491 214.155C150.913 214.577 151.15 215.149 151.151 215.746V227.746C151.15 228.343 150.913 228.915 150.491 229.336C150.069 229.758 149.497 229.995 148.9 229.996ZM127.898 214.996C127.699 214.996 127.508 215.075 127.368 215.216C127.227 215.356 127.148 215.547 127.148 215.746V227.746C127.148 227.945 127.227 228.136 127.368 228.276C127.508 228.417 127.699 228.496 127.898 228.496H148.9C149.099 228.496 149.29 228.417 149.431 228.276C149.571 228.136 149.65 227.945 149.651 227.746V215.746C149.65 215.547 149.571 215.356 149.431 215.216C149.29 215.075 149.099 214.996 148.9 214.996H127.898Z" fill="white"/>
<path d="M145.571 229.996H130.476C130.213 229.996 129.954 229.927 129.726 229.795C129.498 229.664 129.309 229.474 129.177 229.246C129.045 229.018 128.976 228.759 128.976 228.496C128.976 228.233 129.046 227.974 129.177 227.746L133.724 219.871C133.856 219.643 134.045 219.453 134.273 219.322C134.501 219.19 134.76 219.121 135.023 219.121C135.287 219.121 135.545 219.19 135.773 219.322C136.002 219.453 136.191 219.643 136.323 219.871L139.259 224.957L140.961 222.01C141.092 221.782 141.282 221.593 141.51 221.461C141.738 221.33 141.996 221.26 142.26 221.26C142.523 221.26 142.782 221.33 143.01 221.461C143.238 221.593 143.427 221.782 143.559 222.01L146.871 227.746C147.003 227.974 147.072 228.233 147.072 228.496C147.072 228.759 147.002 229.018 146.871 229.246C146.739 229.474 146.55 229.664 146.322 229.795C146.093 229.927 145.835 229.996 145.571 229.996H145.571ZM145.571 228.496L142.26 222.76L139.909 226.832C139.843 226.946 139.749 227.041 139.634 227.107C139.52 227.172 139.391 227.207 139.259 227.207V227.207C139.128 227.207 138.998 227.172 138.884 227.107C138.77 227.041 138.675 226.946 138.61 226.832L135.024 220.621L130.476 228.496H145.571Z" fill="white"/>
<path d="M146.65 219.496C147.479 219.496 148.15 218.824 148.15 217.996C148.15 217.167 147.479 216.496 146.65 216.496C145.822 216.496 145.15 217.167 145.15 217.996C145.15 218.824 145.822 219.496 146.65 219.496Z" fill="white"/>
<path d="M277.917 241.996C290.345 241.996 300.42 231.922 300.42 219.496C300.42 207.069 290.345 196.995 277.917 196.995C265.489 196.995 255.414 207.069 255.414 219.496C255.414 231.922 265.489 241.996 277.917 241.996Z" fill="#862513"/>
<path d="M277.917 219.871C276.582 219.871 275.277 219.475 274.167 218.733C273.057 217.991 272.191 216.937 271.68 215.704C271.169 214.47 271.036 213.113 271.296 211.804C271.557 210.494 272.2 209.292 273.144 208.348C274.088 207.403 275.291 206.761 276.6 206.5C277.91 206.24 279.267 206.373 280.501 206.884C281.734 207.395 282.789 208.26 283.531 209.37C284.272 210.48 284.668 211.786 284.668 213.121C284.666 214.91 283.954 216.626 282.689 217.892C281.423 219.157 279.707 219.869 277.917 219.871V219.871ZM277.917 207.87C276.879 207.87 275.864 208.178 275 208.755C274.137 209.332 273.464 210.152 273.066 211.111C272.669 212.071 272.565 213.126 272.768 214.145C272.97 215.163 273.47 216.099 274.205 216.833C274.939 217.567 275.874 218.067 276.893 218.27C277.912 218.472 278.967 218.369 279.927 217.971C280.886 217.574 281.706 216.901 282.283 216.037C282.86 215.174 283.168 214.159 283.168 213.121C283.166 211.729 282.613 210.394 281.628 209.41C280.644 208.426 279.309 207.872 277.917 207.87Z" fill="white"/>
<path d="M283.918 232.621H271.916C271.22 232.62 270.553 232.344 270.061 231.851C269.569 231.359 269.292 230.692 269.291 229.996C269.291 227.709 270.2 225.515 271.818 223.897C273.435 222.28 275.629 221.371 277.917 221.371C280.205 221.371 282.399 222.28 284.017 223.897C285.634 225.515 286.543 227.709 286.543 229.996C286.542 230.692 286.266 231.359 285.773 231.851C285.281 232.344 284.614 232.62 283.918 232.621ZM277.917 222.871C276.028 222.873 274.217 223.624 272.881 224.96C271.545 226.296 270.793 228.107 270.791 229.996C270.792 230.294 270.91 230.58 271.121 230.791C271.332 231.002 271.618 231.121 271.916 231.121H283.918C284.216 231.121 284.502 231.002 284.713 230.791C284.924 230.58 285.043 230.294 285.043 229.996C285.041 228.107 284.289 226.296 282.954 224.96C281.618 223.624 279.806 222.873 277.917 222.871V222.871Z" fill="white"/>
<path d="M60.7105 353.409H69.9067L74.2813 317.942L60.709 317.943L60.7105 353.409Z" fill="#FFB8B8"/>
<path d="M87.6421 361.947L58.7403 361.948L58.7398 350.783L76.475 350.782C79.4365 350.782 82.2769 351.958 84.3711 354.052C86.4653 356.145 87.642 358.985 87.6421 361.947V361.947L87.6421 361.947Z" fill="#2F2E41"/>
<path d="M26.2061 353.409H35.4023L39.7769 317.942L26.2046 317.943L26.2061 353.409Z" fill="#FFB8B8"/>
<path d="M53.1377 361.947L24.2359 361.948L24.2354 350.783L41.9706 350.782C44.9321 350.782 47.7725 351.958 49.8667 354.052C51.961 356.145 53.1376 358.985 53.1377 361.947V361.947L53.1377 361.947Z" fill="#2F2E41"/>
<path d="M27.3295 247.777C28.3202 247.14 29.1592 246.293 29.7873 245.297C30.4154 244.3 30.8174 243.178 30.9648 242.01C31.1123 240.841 31.0017 239.654 30.6409 238.533C30.2801 237.412 29.6777 236.383 28.8763 235.52L34.9315 149.599L17.4895 151.29L17.0104 235.433C15.6491 236.875 14.8642 238.767 14.8045 240.749C14.7447 242.731 15.4143 244.666 16.6862 246.188C17.9582 247.71 19.7442 248.712 21.7058 249.005C23.6675 249.298 25.6684 248.861 27.3295 247.777H27.3295Z" fill="#FFB8B8"/>
<path d="M60.9847 335.546C60.1596 335.544 59.3638 335.24 58.7466 334.692C58.1295 334.145 57.7334 333.391 57.6327 332.572L52.2873 287.869C52.2121 287.239 51.9116 286.658 51.4414 286.233C50.9711 285.808 50.3629 285.567 49.729 285.555C49.0951 285.544 48.4784 285.762 47.9927 286.169C47.5071 286.577 47.1854 287.146 47.087 287.773L40.3534 330.575C40.2315 331.37 39.8278 332.096 39.2158 332.619C38.6037 333.142 37.8242 333.428 37.019 333.425H26.105C25.6596 333.425 25.2186 333.337 24.8074 333.166C24.3962 332.995 24.023 332.744 23.7092 332.428C23.3955 332.111 23.1474 331.736 22.9792 331.324C22.8111 330.911 22.7263 330.47 22.7296 330.024L27.9384 235.121C27.9404 234.313 28.2338 233.533 28.7648 232.924C29.2958 232.315 30.0287 231.918 30.829 231.806L71.3295 225.927C71.8107 225.858 72.3013 225.893 72.7677 226.03C73.2342 226.167 73.6654 226.404 74.032 226.723C74.3985 227.043 74.6917 227.438 74.8916 227.881C75.0914 228.324 75.1932 228.805 75.1898 229.291L74.4833 331.712C74.4774 332.575 74.1408 333.403 73.5428 334.026C72.9448 334.649 72.1309 335.018 71.2685 335.059L61.1449 335.542C61.0913 335.545 61.0379 335.546 60.9847 335.546Z" fill="#2F2E41"/>
<path d="M39.9875 238.706C36.0918 238.691 32.228 238.003 28.5666 236.673C27.9459 236.444 27.4068 236.037 27.0173 235.503C26.6278 234.968 26.4053 234.33 26.3778 233.669C26.0284 225.916 23.9843 186.01 18.0333 161.668C16.8767 156.893 17.1596 151.882 18.8463 147.267C20.5331 142.653 23.5483 138.641 27.5119 135.737C27.832 135.507 28.1584 135.281 28.4909 135.06C31.9328 132.769 35.9036 131.396 40.0256 131.073C44.1477 130.75 48.2839 131.487 52.0406 133.214C55.9217 134.95 59.2938 137.651 61.8361 141.058C64.3785 144.466 66.0065 148.468 66.5652 152.682L76.2696 224.722C76.3319 225.173 76.3021 225.631 76.1821 226.07C76.062 226.508 75.8542 226.918 75.5711 227.273C75.2942 227.627 74.9485 227.92 74.5547 228.136C74.161 228.352 73.7276 228.485 73.2807 228.528C69.9181 228.864 62.944 230.167 54.0183 235.125C49.726 237.503 44.8942 238.736 39.9875 238.706V238.706Z" fill="#3F3D56"/>
<path d="M28.1235 178.99L12.1534 174.661C11.2899 174.426 10.555 173.858 10.1099 173.081C9.6647 172.305 9.54567 171.384 9.77888 170.52L15.393 149.816C15.9943 147.598 17.3956 145.681 19.3265 144.435C21.2574 143.19 23.5813 142.703 25.8501 143.068C28.1188 143.434 30.1718 144.627 31.613 146.417C33.0543 148.207 33.7818 150.467 33.6552 152.761L32.3772 175.919C32.3495 176.421 32.21 176.911 31.9688 177.352C31.7276 177.793 31.3909 178.175 30.9831 178.469C30.5754 178.764 30.1071 178.963 29.6123 179.053C29.1175 179.144 28.6088 179.122 28.1235 178.99V178.99Z" fill="#3F3D56"/>
<path d="M45.9012 123.432C56.076 123.432 64.3244 115.185 64.3244 105.011C64.3244 94.8369 56.076 86.5894 45.9012 86.5894C35.7264 86.5894 27.478 94.8369 27.478 105.011C27.478 115.185 35.7264 123.432 45.9012 123.432Z" fill="#FFB8B8"/>
<path d="M112.662 141.203C112.57 141.607 112.51 142.019 112.483 142.433L80.2606 161.02L72.4286 156.512L64.0791 167.441L80.8341 179.382L117.595 150.384C119.094 150.939 120.727 151.024 122.276 150.628C123.825 150.233 125.216 149.375 126.266 148.169C127.315 146.963 127.973 145.466 128.151 143.878C128.329 142.289 128.019 140.684 127.263 139.276C126.506 137.868 125.339 136.723 123.916 135.995C122.493 135.266 120.882 134.988 119.297 135.197C117.712 135.406 116.228 136.093 115.043 137.166C113.858 138.238 113.028 139.647 112.662 141.203V141.203Z" fill="#FFB8B8"/>
<path d="M77.5903 161.917L63.7103 170.924C62.959 171.41 62.0456 171.578 61.1703 171.392C60.295 171.206 59.5293 170.68 59.0413 169.93L47.3623 151.935C46.1112 150.007 45.6181 147.685 45.9781 145.416C46.3382 143.146 47.5258 141.09 49.312 139.644C51.0982 138.199 53.3565 137.465 55.6515 137.586C57.9464 137.707 60.1154 138.672 61.7402 140.297L78.1399 156.699C78.4956 157.055 78.7672 157.485 78.9351 157.959C79.1029 158.434 79.1626 158.939 79.11 159.439C79.0573 159.939 78.8935 160.421 78.6306 160.85C78.3676 161.279 78.0122 161.643 77.5903 161.917Z" fill="#3F3D56"/>
<path d="M32.8637 119.585C36.3007 123.246 42.6835 121.28 43.1313 116.279C43.1664 115.891 43.1639 115.5 43.1237 115.113C42.8925 112.897 41.6126 110.886 41.9192 108.547C41.9886 107.965 42.2055 107.41 42.5493 106.935C45.2881 103.268 51.7172 108.576 54.302 105.256C55.887 103.22 54.0239 100.015 55.2401 97.7403C56.8454 94.7375 61.6001 96.2188 64.5818 94.5743C67.8992 92.7447 67.7008 87.6552 65.517 84.5595C62.8538 80.7842 58.1843 78.7697 53.5729 78.4794C48.9616 78.189 44.3821 79.4355 40.077 81.113C35.1855 83.0191 30.3349 85.6533 27.3248 89.954C23.6642 95.184 23.3119 102.215 25.1426 108.331C26.2563 112.051 30.0571 116.595 32.8637 119.585Z" fill="#2F2E41"/>
<path d="M105.764 362H0.750098C0.55116 362 0.360369 361.921 0.219698 361.78C0.0790274 361.64 0 361.449 0 361.25C0 361.051 0.0790274 360.86 0.219698 360.72C0.360369 360.579 0.55116 360.5 0.750098 360.5H105.764C105.963 360.5 106.154 360.579 106.294 360.72C106.435 360.86 106.514 361.051 106.514 361.25C106.514 361.449 106.435 361.64 106.294 361.78C106.154 361.921 105.963 362 105.764 362Z" fill="#3F3D56"/>
</g>
<defs>
<clipPath id="clip0_210_377">
<rect width="685" height="362" fill="white"/>
</clipPath>
</defs>
</svg>
