<svg width="594" height="500" viewBox="0 0 594 500" fill="none" xmlns="http://www.w3.org/2000/svg">
<path d="M483.766 241.319C483.766 248.345 483.47 255.299 482.878 262.183C482.412 267.556 481.776 272.881 480.969 278.157C480.113 283.744 479.063 289.264 477.82 294.717V294.723C477.007 298.311 476.115 301.87 475.143 305.4C472.322 315.661 468.814 325.722 464.642 335.515C463.735 337.645 462.799 339.761 461.833 341.862C458.178 349.819 454.086 357.569 449.575 365.076C436.924 386.158 421.132 405.197 402.742 421.541C400.751 423.307 398.733 425.043 396.688 426.751C353.266 462.939 298.462 482.724 241.883 482.637C108.293 482.637 0 374.597 0 241.319C0 108.041 108.293 0.000298891 241.883 0.000298891C296.514 -0.0856401 349.551 18.3631 392.285 52.3174C394.288 53.901 396.266 55.5203 398.219 57.1752C407.748 65.2378 416.641 74.0199 424.82 83.4437H424.826C462.919 127.252 483.852 183.323 483.766 241.319V241.319Z" fill="#F2F2F2"/>
<path d="M71.4043 283.003C48.3621 269.321 30.9707 243.751 33.2286 217.095C54.2948 237.21 81.8137 249.243 110.916 251.064C122.143 251.726 134.698 251.296 142.962 258.906C148.104 263.641 150.498 270.77 150.89 277.74C151.283 284.71 149.883 291.643 148.491 298.484L148.97 300.16C122.156 300.261 94.4465 296.686 71.4043 283.003Z" fill="#E6E6E6"/>
<path d="M33.7902 217.066C43.0226 237.202 58.3799 253.925 77.6808 264.857C81.8301 267.175 86.2413 269.165 90.929 270.088C95.5052 270.953 100.23 270.579 104.613 269.006C108.729 267.622 112.778 265.73 117.159 265.367C121.778 264.985 126.054 266.763 129.413 269.876C133.523 273.686 136.016 278.741 138.282 283.77C140.798 289.353 143.322 295.192 148.145 299.208C148.73 299.694 147.939 300.57 147.355 300.085C138.964 293.099 137.594 281.4 130.886 273.173C127.756 269.334 123.447 266.413 118.329 266.49C113.853 266.557 109.675 268.505 105.52 269.943C101.157 271.453 96.7859 272.162 92.1797 271.498C87.4678 270.818 82.9693 268.996 78.7788 266.794C69.3138 261.732 60.7054 255.217 53.269 247.487C44.7328 238.712 37.7641 228.545 32.6645 217.426C32.3491 216.737 33.4769 216.382 33.7902 217.066H33.7902Z" fill="white"/>
<path d="M71.258 261.702C68.9798 264.684 65.7134 266.76 62.0422 267.561C58.371 268.362 54.5339 267.835 51.2164 266.074C50.5463 265.715 51.0734 264.659 51.7444 265.019C54.8307 266.664 58.4049 267.155 61.822 266.402C65.2392 265.65 68.2741 263.703 70.379 260.914C70.8371 260.308 71.7135 261.1 71.258 261.702L71.258 261.702Z" fill="white"/>
<path d="M102.618 269.983C101.659 262.379 97.8625 255.414 91.9855 250.479C91.4028 249.99 92.1934 249.114 92.7754 249.602C98.8815 254.749 102.817 262.005 103.798 269.92C103.891 270.674 102.71 270.733 102.618 269.983V269.983Z" fill="white"/>
<path d="M46.197 238.159C47.3195 237.188 48.1828 235.955 48.7093 234.569C49.2359 233.184 49.4093 231.69 49.214 230.221C49.1115 229.468 50.2923 229.41 50.3941 230.158C50.6024 231.782 50.4089 233.432 49.8305 234.964C49.2521 236.496 48.3064 237.864 47.0761 238.947C46.9687 239.059 46.8227 239.126 46.6677 239.134C46.5127 239.142 46.3603 239.091 46.2416 238.991C46.1257 238.886 46.0561 238.74 46.0477 238.584C46.0394 238.428 46.093 238.275 46.197 238.159V238.159Z" fill="white"/>
<path d="M107.814 165.451C107.892 165.92 107.969 166.388 108.055 166.861C109.128 173.152 110.712 179.346 112.79 185.381C112.944 185.85 113.106 186.323 113.272 186.787C118.435 201.274 126.249 214.679 136.317 226.321C140.327 230.949 144.685 235.267 149.352 239.236C155.797 244.717 163.223 250.149 167.356 257.226C167.795 257.959 168.189 258.719 168.534 259.501L150.982 299.447C150.896 299.518 150.82 299.593 150.734 299.664L150.106 301.291C149.851 301.103 149.591 300.903 149.336 300.715C149.187 300.607 149.043 300.489 148.895 300.381C148.797 300.306 148.699 300.23 148.607 300.168C148.574 300.143 148.542 300.118 148.518 300.097C148.426 300.035 148.347 299.967 148.263 299.909C146.804 298.793 145.351 297.665 143.902 296.524C143.893 296.52 143.893 296.52 143.888 296.507C132.875 287.79 122.494 278.078 113.921 267.104C113.663 266.773 113.396 266.44 113.146 266.091C109.309 261.123 105.886 255.85 102.91 250.325C101.29 247.295 99.8251 244.185 98.5206 241.006C95.1659 232.788 93.1277 224.094 92.4809 215.244C91.194 197.601 95.5772 179.744 106.936 166.458C107.227 166.118 107.514 165.787 107.814 165.451Z" fill="#E6E6E6"/>
<path d="M108.282 165.763C103.502 187.387 105.672 209.963 114.485 230.286C116.4 234.628 118.721 238.867 121.907 242.42C125.038 245.859 129.036 248.399 133.485 249.775C137.607 251.142 141.982 252.063 145.699 254.406C149.617 256.875 151.958 260.863 152.762 265.366C153.744 270.877 152.684 276.411 151.458 281.787C150.098 287.756 148.59 293.935 150.018 300.038C150.191 300.777 149.03 301.002 148.858 300.264C146.373 289.645 152.339 279.482 151.948 268.883C151.766 263.938 150.089 259.018 145.955 256.004C142.341 253.37 137.83 252.415 133.644 251.068C129.249 249.653 125.331 247.594 122.055 244.296C118.702 240.923 116.21 236.766 114.193 232.492C109.69 222.765 106.749 212.392 105.476 201.753C103.956 189.619 104.528 177.316 107.166 165.374C107.33 164.635 108.445 165.029 108.282 165.763V165.763Z" fill="white"/>
<path d="M111.262 223.908C107.644 224.921 103.782 224.617 100.368 223.051C96.9532 221.485 94.2077 218.76 92.6216 215.361C92.303 214.672 93.361 214.146 93.68 214.835C95.1511 218.003 97.7088 220.542 100.891 221.993C104.074 223.445 107.672 223.714 111.036 222.751C111.767 222.543 111.989 223.701 111.262 223.908H111.262Z" fill="white"/>
<path d="M131.304 249.357C135.128 242.71 136.299 234.869 134.586 227.398C134.415 226.658 135.575 226.433 135.746 227.172C137.514 234.95 136.279 243.107 132.285 250.016C131.904 250.674 130.925 250.012 131.304 249.357Z" fill="white"/>
<path d="M105.462 190.058C106.943 189.957 108.377 189.491 109.634 188.701C110.89 187.911 111.93 186.822 112.661 185.532C113.034 184.869 114.011 185.532 113.641 186.191C112.827 187.612 111.677 188.814 110.291 189.689C108.904 190.565 107.324 191.089 105.688 191.215C105.535 191.24 105.378 191.206 105.249 191.119C105.12 191.033 105.029 190.9 104.995 190.749C104.966 190.596 104.998 190.437 105.086 190.308C105.173 190.178 105.308 190.089 105.462 190.058V190.058Z" fill="white"/>
<path d="M167.555 55.931L197.16 401.69L137.949 406.132V60.33C145.005 55.6723 155.133 54.9436 167.555 55.931Z" fill="#CCCCCC"/>
<path d="M313.691 55.931L284.086 401.69L343.297 406.132V60.33C336.241 55.6723 326.113 54.9436 313.691 55.931Z" fill="#CCCCCC"/>
<path d="M334.431 420.422H146.184C143.166 420.419 140.272 419.221 138.137 417.092C136.003 414.962 134.802 412.075 134.799 409.063V65.4045C134.802 62.393 136.003 59.5058 138.137 57.3764C140.272 55.247 143.166 54.0491 146.184 54.0457H334.431C337.45 54.0491 340.344 55.247 342.478 57.3764C344.613 59.5058 345.813 62.393 345.817 65.4045V409.063C345.813 412.075 344.613 414.962 342.478 417.092C340.344 419.221 337.45 420.419 334.431 420.422V420.422ZM146.184 57.8163C144.168 57.8185 142.234 58.6187 140.808 60.0413C139.383 61.4639 138.58 63.3926 138.578 65.4045V409.063C138.58 411.075 139.383 413.004 140.808 414.427C142.234 415.849 144.168 416.649 146.184 416.652H334.431C336.448 416.649 338.381 415.849 339.807 414.427C341.233 413.004 342.035 411.075 342.037 409.063V65.4045C342.035 63.3926 341.233 61.4639 339.807 60.0413C338.381 58.6187 336.448 57.8185 334.431 57.8163L146.184 57.8163Z" fill="#CCCCCC"/>
<path d="M343.928 111.233H136.689V115.004H343.928V111.233Z" fill="#CCCCCC"/>
<path d="M343.928 174.076H136.689V177.847H343.928V174.076Z" fill="#CCCCCC"/>
<path d="M203.94 55.931H200.16V227.493H203.94V55.931Z" fill="#CCCCCC"/>
<path d="M280.455 55.931H276.676V227.493H280.455V55.931Z" fill="#CCCCCC"/>
<path d="M367.549 430.791H119.367C114.856 430.791 110.53 429.004 107.341 425.822C104.151 422.64 102.359 418.324 102.359 413.824C102.359 409.324 104.151 405.008 107.341 401.826C110.53 398.644 114.856 396.856 119.367 396.856H367.549C372.059 396.856 376.385 398.644 379.575 401.826C382.764 405.008 384.556 409.324 384.556 413.824C384.556 418.324 382.764 422.64 379.575 425.822C376.385 429.004 372.059 430.791 367.549 430.791V430.791Z" fill="#CCCCCC"/>
<path d="M343.928 218.695H137.949V231.264H343.928V218.695Z" fill="#CCCCCC"/>
<path d="M204.527 258.695L204.266 258.57C190.224 251.802 171.836 251.808 144.643 258.592L144.353 258.664L144.266 258.378C141.389 248.968 138.13 238.31 144.252 233.066C144.338 217.678 157.867 205.184 174.485 205.184C191.099 205.184 204.626 217.672 204.717 233.055C213.824 240.002 209.484 250.267 204.674 258.446L204.527 258.695Z" fill="#2F2E41"/>
<path d="M290.83 225.746C290.579 226.993 290.056 228.17 289.299 229.193C288.542 230.217 287.57 231.062 286.45 231.67C285.33 232.278 284.09 232.634 282.818 232.712C281.545 232.79 280.271 232.589 279.085 232.123L229.462 281.873L225.035 266.425L274.319 220.226C275.236 218.29 276.834 216.757 278.808 215.917C280.783 215.077 282.997 214.989 285.032 215.67C287.068 216.35 288.782 217.752 289.851 219.609C290.919 221.466 291.268 223.65 290.83 225.746L290.83 225.746Z" fill="#FFB6B6"/>
<path d="M168.189 273.641C168.189 273.641 163.687 283.819 174.796 290.096C185.905 296.373 224.73 287.701 231.03 286.49C237.33 285.279 260.859 250.149 260.859 250.149L257.532 232.921L226.327 259.947L168.189 273.641Z" fill="#862513"/>
<path d="M159.995 329.928L160.625 341.868C160.625 341.868 158.766 352.445 160.295 354.727C161.812 356.998 203.223 357.285 203.223 357.285C203.223 357.285 205.959 342.57 208.316 329.689L159.995 329.928Z" fill="#FFB6B6"/>
<path d="M279.057 487.804L287.714 486.059L285.236 451.172L272.459 453.747L279.057 487.804Z" fill="#FFB6B6"/>
<path d="M291.457 442.404L299.505 438.793L289.064 405.413L277.186 410.742L291.457 442.404Z" fill="#FFB6B6"/>
<path d="M298.468 423.596L283.313 432.156L245.94 372.24C219.704 389.875 194.048 398.32 168.184 402.826C159.44 404.379 150.525 403.592 148.846 394.713C148.767 394.298 148.705 393.881 148.658 393.461C147.626 383.762 159.718 371.331 161.255 359.464L194.351 357.482L198.432 362.703L236.706 339.227C244.403 334.506 254.526 337.059 259.317 344.93C259.57 345.346 259.805 345.772 260.022 346.208L298.468 423.596Z" fill="#2F2E41"/>
<path d="M289.193 463.902L271.853 465.509L240.413 401.358C209.235 406.708 179.822 408.422 154.381 401.95C145.768 399.789 140.502 390.916 142.621 382.131C142.72 381.72 142.834 381.314 142.964 380.912C146.009 371.644 153.979 365.086 160.259 354.893L206.127 355.588L201.003 373.223L245.561 367.47C254.521 366.314 262.705 372.784 263.839 381.923C263.899 382.406 263.938 382.89 263.956 383.377L289.193 463.902Z" fill="#2F2E41"/>
<path d="M177.906 249.575C188.192 249.575 196.531 241.256 196.531 230.993C196.531 220.731 188.192 212.412 177.906 212.412C167.62 212.412 159.281 220.731 159.281 230.993C159.281 241.256 167.62 249.575 177.906 249.575Z" fill="#FFB6B6"/>
<path d="M166.987 256.283L184.064 258.287C184.784 258.372 185.46 258.678 185.997 259.164C186.535 259.65 186.907 260.291 187.061 260.998L189.777 273.396L206.707 293.286C206.707 293.286 212.786 304.658 210.507 317.547C208.227 330.435 207.225 340.012 207.225 340.012C207.225 340.012 161.811 357 160.292 354.725C158.772 352.451 158.278 342.12 158.278 342.12L152.199 274.645C152.199 274.645 159.038 263.273 162.838 263.273C165.29 263.191 164.976 257.685 166.987 256.283Z" fill="#862513"/>
<path d="M207.686 344.16C210.08 344.16 212.022 341.836 212.022 338.969C212.022 336.102 210.08 333.778 207.686 333.778C205.291 333.778 203.35 336.102 203.35 338.969C203.35 341.836 205.291 344.16 207.686 344.16Z" fill="#862513"/>
<path d="M274.76 478.821L287.958 472.222L290.446 478.012L307.136 481.378C307.961 481.544 308.71 481.968 309.275 482.59C309.841 483.211 310.192 483.996 310.279 484.831C310.365 485.665 310.181 486.506 309.755 487.229C309.329 487.952 308.682 488.521 307.909 488.851L291.783 495.747L286.543 491.209L287.918 497.4L281.838 500L274.76 478.821Z" fill="#2F2E41"/>
<path d="M287.68 439.626L300.76 432.797L303.349 438.542L320.096 441.614C320.924 441.766 321.68 442.178 322.257 442.789C322.833 443.4 323.198 444.179 323.299 445.012C323.4 445.845 323.231 446.688 322.818 447.419C322.404 448.15 321.768 448.729 321.001 449.073L304.999 456.251L299.679 451.806L301.163 457.972L295.13 460.678L287.68 439.626Z" fill="#2F2E41"/>
<path d="M167.263 225.165C162.343 225.173 157.54 223.661 153.515 220.838L153.381 220.744V220.58C153.386 215.832 155.279 211.279 158.645 207.922C162.01 204.564 166.574 202.675 171.333 202.67H178.892C183.651 202.675 188.215 204.564 191.58 207.922C194.946 211.279 196.839 215.832 196.844 220.58C196.839 221.667 196.409 222.709 195.645 223.484C194.882 224.259 193.845 224.706 192.756 224.73L167.688 225.161C167.547 225.164 167.405 225.165 167.263 225.165Z" fill="#2F2E41"/>
<path d="M198.106 217.141C200.516 215.752 200.919 211.947 199.005 208.64C197.092 205.334 193.587 203.779 191.177 205.167C188.766 206.556 188.364 210.361 190.277 213.668C192.19 216.974 195.695 218.529 198.106 217.141Z" fill="#2F2E41"/>
<path d="M160.409 213.452C163.115 210.753 163.713 206.972 161.745 205.009C159.777 203.046 155.988 203.643 153.282 206.342C150.576 209.042 149.978 212.822 151.946 214.785C153.914 216.749 157.703 216.152 160.409 213.452Z" fill="#2F2E41"/>
<path d="M325.244 383.345H306.653C306.234 383.344 305.82 383.434 305.439 383.61C305.058 383.785 304.721 384.042 304.45 384.361C303.764 384.235 303.058 384.274 302.39 384.473C301.722 384.672 301.111 385.026 300.607 385.507C300.103 385.987 299.72 386.58 299.491 387.237C299.261 387.894 299.19 388.595 299.285 389.284C299.38 389.974 299.637 390.63 300.035 391.201C300.434 391.772 300.962 392.24 301.577 392.568C302.192 392.895 302.876 393.072 303.574 393.085C304.271 393.097 304.961 392.945 305.587 392.64L307.129 397.638C307.312 398.231 307.68 398.749 308.18 399.117C308.679 399.485 309.284 399.684 309.905 399.684H321.992C322.613 399.684 323.218 399.485 323.718 399.117C324.217 398.749 324.585 398.231 324.768 397.638L328.02 387.095C328.154 386.662 328.184 386.203 328.107 385.756C328.031 385.309 327.85 384.886 327.58 384.521C327.31 384.156 326.958 383.86 326.552 383.656C326.146 383.451 325.698 383.345 325.244 383.345V383.345ZM303.665 391.829C302.83 391.829 302.029 391.498 301.438 390.908C300.848 390.319 300.516 389.52 300.516 388.686C300.516 387.853 300.848 387.054 301.438 386.465C302.029 385.875 302.83 385.544 303.665 385.544C303.723 385.544 303.776 385.558 303.833 385.561C303.708 386.067 303.723 386.597 303.877 387.095L305.208 391.409C304.739 391.681 304.207 391.825 303.665 391.829V391.829Z" fill="#3F3D56"/>
<path d="M242.23 369.703C240.961 369.82 239.681 369.658 238.481 369.229C237.281 368.799 236.19 368.112 235.285 367.216C234.38 366.32 233.683 365.237 233.243 364.044C232.803 362.85 232.63 361.574 232.737 360.307L170.73 327.156L184.293 318.493L242.794 352.339C244.916 352.66 246.846 353.747 248.219 355.393C249.592 357.039 250.312 359.13 250.243 361.271C250.173 363.411 249.319 365.452 247.842 367.006C246.366 368.56 244.369 369.52 242.23 369.703V369.703Z" fill="#FFB6B6"/>
<path d="M161.054 266.234C161.054 266.234 149.989 264.852 147.149 277.27C144.309 289.687 163.776 324.305 166.746 329.979C169.717 335.652 210.199 348.06 210.199 348.06L225.787 339.938L190.884 317.868L161.054 266.234Z" fill="#862513"/>
<path d="M239.048 214.925H242.827C244.665 214.925 246.428 215.653 247.727 216.949C249.026 218.246 249.756 220.004 249.756 221.837H232.119C232.119 220.004 232.849 218.246 234.149 216.949C235.448 215.653 237.21 214.925 239.048 214.925V214.925Z" fill="#CCCCCC"/>
<path d="M119.204 85.9484C139.883 85.9484 156.647 69.2239 156.647 48.5932C156.647 27.9625 139.883 11.2379 119.204 11.2379C98.5254 11.2379 81.7617 27.9625 81.7617 48.5932C81.7617 69.2239 98.5254 85.9484 119.204 85.9484Z" fill="#FF6584"/>
<path d="M233.844 46.6465C223.935 36.2758 212.427 26.815 198.803 21.8156C195.008 20.417 191.073 19.4305 187.066 18.873C187.034 18.8686 187.003 18.8751 186.971 18.8725C186.906 18.8558 186.84 18.8429 186.773 18.8338C181.169 18.1215 175.481 18.4641 170.004 19.8438C167.325 20.5144 164.712 21.4226 162.196 22.5575C159.671 23.7866 157.224 25.1701 154.869 26.7C149.886 29.6761 144.399 31.7183 138.679 32.7257C135.808 33.2414 132.9 33.5261 129.984 33.5772C127.453 33.6278 125.066 33.7156 122.668 34.6277C120.107 35.5886 117.806 37.1335 115.95 39.1391C114.093 41.1447 112.732 43.5554 111.975 46.179C111.917 46.4126 111.934 46.6587 112.025 46.8817C112.116 47.1047 112.276 47.2931 112.481 47.4197C113.13 47.8832 113.762 48.409 114.444 48.8219C115.05 49.0987 115.697 49.2749 116.361 49.3435C117.444 49.5716 118.529 49.793 119.615 50.0078C123.617 50.7988 127.635 51.499 131.67 52.1084C139.834 53.3414 148.043 54.21 156.296 54.7141C172.828 55.7132 189.417 55.2158 205.86 53.228C215.1 52.1114 224.278 50.5276 233.358 48.4828C233.542 48.4292 233.709 48.3291 233.843 48.1923C233.976 48.0554 234.072 47.8864 234.121 47.7016C234.17 47.5168 234.17 47.3226 234.122 47.1377C234.073 46.9529 233.978 46.7837 233.844 46.6465V46.6465Z" fill="#E6E6E6"/>
<path d="M120.98 71.6226C117.186 70.224 113.251 69.2375 109.244 68.68C109.212 68.6757 109.181 68.6822 109.149 68.6796C109.084 68.6628 109.018 68.6499 108.951 68.6408C103.347 67.9285 97.659 68.2712 92.1816 69.6508C89.5031 70.3214 86.89 71.2296 84.3736 72.3645C81.8483 73.5936 79.4014 74.9771 77.047 76.507C72.0635 79.4831 66.5765 81.5253 60.8569 82.5327C57.9859 83.0484 55.078 83.3332 52.1613 83.3842C49.6305 83.4348 47.2438 83.5226 44.8461 84.4347C42.2847 85.3956 39.984 86.9405 38.1274 88.9461C36.2708 90.9516 34.9098 93.3624 34.1529 95.9859C34.0946 96.2196 34.1121 96.4656 34.2031 96.6886C34.2941 96.9117 34.4537 97.1001 34.659 97.2267C35.3076 97.6901 35.9399 98.216 36.6214 98.6289C37.2276 98.9057 37.8751 99.0819 38.5383 99.1505C39.6218 99.3785 40.7066 99.6 41.7928 99.8147C45.7945 100.606 49.8127 101.306 53.8476 101.915C62.0121 103.148 70.2206 104.017 78.4733 104.521C95.0057 105.52 111.595 105.023 128.037 103.035C137.278 101.918 146.456 100.335 155.536 98.2898C155.72 98.2362 155.887 98.1361 156.02 97.9992C156.154 97.8623 156.25 97.6933 156.299 97.5086C156.348 97.3238 156.348 97.1296 156.299 96.9447C156.251 96.7599 156.155 96.5907 156.022 96.4535C146.113 86.0828 134.604 76.622 120.98 71.6226Z" fill="#E6E6E6"/>
<path d="M390.996 350.1L362.202 312.362L339.482 325.178L387.627 382.216L390.996 350.1Z" fill="#3F3D56"/>
<path d="M457.322 288.753C457.962 304.568 460.418 320.258 464.642 335.515C463.735 337.645 462.798 339.761 461.832 341.862C458.178 349.819 454.085 357.569 449.574 365.076C436.924 386.158 421.132 405.197 402.741 421.541C400.751 423.307 398.733 425.043 396.688 426.751C385.028 410.713 378.735 393.016 376.247 374.804C375.932 372.492 375.674 370.154 375.479 367.829V367.816C375.001 362.165 374.848 356.492 375.019 350.823C375.025 350.371 375.038 349.912 375.057 349.453C375.277 343.395 375.825 337.324 376.65 331.31V331.304C376.745 330.613 376.839 329.922 376.947 329.23C377.249 327.156 377.589 325.083 377.961 323.021C380.124 311.133 383.142 299.416 386.994 287.961V287.955C387.101 287.622 387.208 287.295 387.327 286.968C387.743 285.724 388.165 284.492 388.6 283.26C388.627 283.164 388.66 283.069 388.701 282.978C389.261 281.369 389.834 279.773 390.42 278.189C390.578 277.749 390.741 277.309 390.912 276.869C391.573 275.103 392.247 273.35 392.934 271.622C393.148 271.069 393.368 270.516 393.589 269.969C393.759 269.548 393.922 269.127 394.099 268.712V268.706C395.1 266.236 396.115 263.815 397.141 261.441C400.02 254.767 402.98 248.489 405.865 242.701L405.872 242.695C417.846 218.733 428.731 203.173 428.731 203.173L469.605 216.37C464.73 224.998 460.957 237.724 458.891 252.737C457.299 264.67 456.774 276.721 457.322 288.747L457.322 288.753Z" fill="#3F3D56"/>
<path d="M389.387 284.913C389.148 284.354 388.877 283.807 388.6 283.26C387.163 280.485 385.313 277.942 383.114 275.719C382.786 275.386 382.446 275.053 382.093 274.739C378.299 271.252 373.685 268.776 368.678 267.539C363.67 266.303 358.431 266.345 353.445 267.663L353.42 267.675L353.231 267.726L353.275 267.939C353.464 268.935 353.738 269.912 354.094 270.861C354.188 271.119 354.295 271.364 354.403 271.609C354.447 271.722 354.503 271.823 354.554 271.936C354.554 271.936 354.547 271.942 354.56 271.942C354.56 271.949 354.566 271.955 354.566 271.961C354.686 272.194 354.799 272.433 354.925 272.659C354.667 272.414 354.421 272.162 354.182 271.905C353.949 271.666 353.735 271.414 353.521 271.163C352.786 270.309 352.123 269.397 351.536 268.436L351.436 268.266L351.259 268.335C348.882 269.157 346.615 270.265 344.507 271.634L344.28 271.785C342.67 272.839 340.857 273.544 338.957 273.854C337.056 274.164 335.112 274.071 333.25 273.583C330.315 272.827 327.254 272.689 324.262 273.177C321.27 273.665 318.413 274.768 315.871 276.417C314.188 277.512 312.665 278.836 311.349 280.351C311.235 280.483 311.122 280.621 311.008 280.753C310.769 281.042 310.542 281.337 310.322 281.639C307.954 284.796 306.501 288.542 306.12 292.467L306.108 292.612L306.227 292.693C308.359 294.151 310.769 295.152 313.308 295.634C311.713 295.856 310.099 295.896 308.495 295.754H308.489C307.761 295.694 307.038 295.593 306.322 295.452L306.19 295.427H306.183L306.02 295.396L306.045 295.697C306.233 299.537 307.444 303.257 309.553 306.475L309.616 306.563C309.64 306.595 309.661 306.628 309.679 306.663C310.573 308.027 311.316 309.483 311.897 311.006C313.369 314.79 313.693 318.923 312.829 322.889C311.85 327.132 312.176 331.57 313.762 335.626C315.349 339.682 318.123 343.166 321.723 345.626C324.886 347.797 328.571 349.088 332.4 349.365C332.923 349.409 333.452 349.435 333.981 349.435C337.01 349.444 340.007 348.821 342.781 347.606L342.882 347.568L342.907 347.455C343.44 345.738 344.189 344.095 345.137 342.566C344.827 343.771 344.67 345.01 344.67 346.255V346.669L345.029 346.462C345.338 346.28 345.653 346.085 345.937 345.903C347.638 344.794 349.179 343.458 350.516 341.931C351.039 341.328 351.568 340.743 352.122 340.159L352.129 340.153C353.206 339.009 354.346 337.89 355.53 336.822C358.049 334.564 360.746 332.511 363.593 330.682C366.438 328.859 369.413 327.246 372.493 325.856H372.5C372.846 325.692 373.199 325.535 373.545 325.384C375.079 324.718 376.556 323.928 377.961 323.021C378.011 322.99 378.055 322.965 378.099 322.933C384.189 318.956 388.665 312.951 390.733 305.989C392.8 299.026 392.323 291.558 389.387 284.913L389.387 284.913Z" fill="#862513"/>
<path opacity="0.15" d="M313.865 331.812C313.693 332.576 313.563 333.349 313.475 334.127C312.304 330.43 312.134 326.489 312.983 322.704C313.114 322.125 313.212 321.54 313.289 320.951C314.452 324.454 314.651 328.206 313.865 331.812Z" fill="black"/>
<path opacity="0.15" d="M314.343 304.552C312.477 304.811 310.585 304.82 308.717 304.579C308.228 303.658 307.805 302.704 307.453 301.723C309.533 303.123 311.878 304.086 314.343 304.552V304.552Z" fill="black"/>
<path opacity="0.15" d="M308.567 295.552C307.878 297.309 307.421 299.148 307.206 301.022C306.631 299.237 306.292 297.385 306.197 295.512L306.182 295.21L306.479 295.268C307.169 295.397 307.866 295.492 308.567 295.552Z" fill="black"/>
<path opacity="0.15" d="M316.034 276.23C318.572 274.579 321.428 273.475 324.419 272.986C327.409 272.497 330.469 272.636 333.403 273.392C335.265 273.884 337.211 273.978 339.112 273.668C341.014 273.359 342.829 272.654 344.438 271.598L344.666 271.448C346.772 270.076 349.038 268.965 351.415 268.141L351.596 268.079L351.695 268.242C352.635 269.792 353.773 271.213 355.082 272.469C354.287 270.992 353.73 269.399 353.433 267.749L353.39 267.531L353.605 267.475C358.282 266.24 363.185 266.125 367.914 267.141C372.644 268.157 377.066 270.273 380.819 273.319C384.573 276.364 387.551 280.251 389.512 284.663C391.473 289.076 392.36 293.888 392.102 298.708C391.11 294.778 389.346 291.085 386.913 287.84C384.48 284.596 381.425 281.866 377.926 279.808C374.428 277.75 370.554 276.405 366.531 275.851C362.507 275.298 358.414 275.546 354.487 276.582L354.273 276.639L354.315 276.857C354.613 278.506 355.17 280.099 355.964 281.576C354.656 280.321 353.518 278.9 352.578 277.35L352.479 277.186L352.297 277.249C349.921 278.073 347.655 279.183 345.549 280.556L345.321 280.706C343.711 281.762 341.896 282.467 339.995 282.776C338.094 283.085 336.148 282.991 334.285 282.5C329.409 281.238 324.245 281.702 319.673 283.814C315.102 285.925 311.406 289.554 309.216 294.08C308.241 293.612 307.295 293.086 306.385 292.502L306.262 292.424L306.276 292.279C306.59 289.045 307.63 285.922 309.319 283.144C311.008 280.365 313.303 278.002 316.034 276.23V276.23Z" fill="black"/>
<path d="M550.208 115.657L549.61 115.261L549.175 115.827C545.811 120.052 543.135 124.779 541.245 129.835C541.505 124.011 542.526 118.246 544.281 112.685L544.47 112.1L543.928 111.792C536.88 107.811 529.37 104.704 521.566 102.542L520.716 102.316C514.735 100.678 509.167 97.8016 504.375 93.8731C499.583 89.9447 495.675 85.0526 492.906 79.5161C486.47 66.8095 476.303 56.3632 463.762 49.5711C451.221 42.779 436.902 39.9641 422.716 41.5021H422.709C422.558 41.5147 422.401 41.5336 422.249 41.5524C421.991 41.5775 421.739 41.609 421.487 41.6404C420.971 41.7095 420.467 41.7786 419.963 41.8541C419.535 41.9169 419.1 41.986 418.672 42.0614C418.445 42.0929 418.224 42.1306 418.004 42.1746C417.783 42.2123 417.557 42.25 417.336 42.294H417.33C413.101 43.0921 408.955 44.2807 404.946 45.8446H404.94V45.8509L403.925 46.2468C402.88 46.6741 401.843 47.1266 400.814 47.6042C400.581 47.711 400.354 47.8241 400.121 47.931C400.058 47.9624 399.989 47.9938 399.926 48.0315C399.264 48.3457 398.609 48.6725 397.96 49.0182C397.866 49.0622 397.771 49.1124 397.677 49.1627L397.072 49.4832C395.743 50.1996 394.437 50.96 393.154 51.7644C393.047 51.8273 392.946 51.8901 392.839 51.9592C392.726 52.0346 392.606 52.1101 392.493 52.1855C392.423 52.2232 392.354 52.2735 392.285 52.3174C392.09 52.4368 391.901 52.5625 391.712 52.6945C391.334 52.9396 390.956 53.191 390.584 53.4486C390.2 53.7063 389.822 53.9765 389.444 54.2467L389.066 54.517L389.135 54.982C389.198 55.3653 389.255 55.7487 389.324 56.1257C389.387 56.5028 389.45 56.8736 389.52 57.2444C389.627 57.8665 389.746 58.4824 389.866 59.0794C389.948 59.4753 390.024 59.8649 390.112 60.2483C390.194 60.6442 390.282 61.0401 390.376 61.436C390.559 62.253 390.754 63.0448 390.962 63.8241C391.063 64.2137 391.17 64.6033 391.283 64.9867C391.346 65.2192 391.409 65.4517 391.479 65.6779C391.529 65.835 391.579 65.9921 391.63 66.1493C391.642 66.1995 391.655 66.2561 391.674 66.3126C391.688 66.3659 391.705 66.4183 391.724 66.4698C391.794 66.7023 391.863 66.9286 391.932 67.1485C391.97 67.2679 392.008 67.3873 392.052 67.5004C392.14 67.7706 392.234 68.0471 392.329 68.3111C392.43 68.6127 392.537 68.9144 392.644 69.2097C392.669 69.2851 392.694 69.3543 392.72 69.4297C392.738 69.4862 392.757 69.5428 392.783 69.5994C392.808 69.6622 392.833 69.7313 392.858 69.7942C392.965 70.077 393.072 70.366 393.186 70.6488C393.223 70.7494 393.261 70.8562 393.305 70.9568C394.326 73.5169 395.581 75.9782 397.053 78.3094C395.422 76.9143 393.851 75.4354 392.342 73.8727C390.011 71.4565 387.863 68.8707 385.917 66.1367C385.759 65.923 385.602 65.7031 385.457 65.4831C385.161 65.0621 384.871 64.641 384.587 64.2137C384.285 63.7738 383.995 63.315 383.712 62.8626C383.523 62.5609 383.334 62.253 383.151 61.9513C382.969 61.6622 382.799 61.3794 382.635 61.0904L382.143 60.2483H382.137V60.2545L381.444 60.9332C381.167 61.2035 380.89 61.4737 380.619 61.7439C372.153 70.2423 366.021 80.7709 362.812 92.3172L362.717 92.6628L362.623 93.021C362.44 93.662 362.257 94.2842 362.062 94.9189V94.9252C361.873 95.5536 361.672 96.182 361.457 96.7979C361.262 97.3824 361.061 97.9605 360.846 98.5387C360.777 98.7335 360.702 98.9283 360.62 99.1231C360.487 99.5002 360.342 99.871 360.198 100.248C360.128 100.418 360.059 100.594 359.99 100.763C359.82 101.178 359.65 101.593 359.48 102.001C359.454 102.064 359.423 102.133 359.391 102.196C359.341 102.322 359.284 102.448 359.234 102.567C359.102 102.869 358.963 103.177 358.831 103.478C358.736 103.673 358.648 103.874 358.56 104.069C358.522 104.157 358.478 104.245 358.44 104.333C358.207 104.836 357.968 105.332 357.716 105.822C357.432 106.4 357.143 106.979 356.834 107.544C356.563 108.072 356.28 108.587 355.984 109.103C355.473 110.014 354.938 110.919 354.384 111.799C354.169 112.138 353.955 112.477 353.735 112.817C353.684 112.898 353.634 112.98 353.584 113.056C353.401 113.351 353.212 113.634 353.017 113.923C352.884 114.118 352.752 114.312 352.62 114.501C352.399 114.84 352.166 115.167 351.927 115.488C351.864 115.588 351.795 115.682 351.725 115.777C351.373 116.267 351.02 116.744 350.661 117.222C350.648 117.228 350.648 117.235 350.642 117.241C350.629 117.241 350.629 117.247 350.623 117.253C350.466 117.461 350.308 117.668 350.144 117.869C349.93 118.165 349.697 118.454 349.464 118.737C349.086 119.214 348.689 119.698 348.286 120.169C348.274 120.182 348.267 120.195 348.255 120.201C346.168 122.647 343.907 124.941 341.489 127.063C341.445 127.101 341.414 127.139 341.37 127.17C341.03 127.466 340.689 127.761 340.337 128.05C340.192 128.169 340.047 128.289 339.902 128.408C339.663 128.609 339.417 128.81 339.178 128.993C339.149 129.021 339.118 129.047 339.083 129.068C338.869 129.244 338.661 129.407 338.447 129.571C338.189 129.778 337.931 129.973 337.666 130.168C336.419 131.11 335.138 132.001 333.824 132.839C333.628 132.971 333.42 133.103 333.219 133.228C333.099 133.304 332.979 133.379 332.866 133.442C332.387 133.737 331.909 134.026 331.43 134.303C330.951 134.586 330.46 134.856 329.975 135.12C328.935 135.685 327.909 136.276 326.907 136.892C326.403 137.206 325.899 137.52 325.402 137.841C323.424 139.123 321.519 140.495 319.688 141.957C317.858 143.42 316.102 144.974 314.429 146.614C314.221 146.815 314.013 147.022 313.805 147.236C313.389 147.644 312.986 148.059 312.602 148.474C311.985 149.109 311.393 149.762 310.807 150.422C307.718 153.919 304.983 157.712 302.643 161.747C301.468 163.761 300.4 165.836 299.443 167.962C298.719 169.552 298.058 171.179 297.459 172.826C297.062 173.926 296.691 175.036 296.344 176.156C296.174 176.716 296.01 177.281 295.853 177.847C295.318 179.764 294.87 181.699 294.505 183.641C294.209 185.2 293.97 186.76 293.787 188.323C293.692 189.109 293.617 189.894 293.547 190.673C293.385 192.589 293.302 194.506 293.299 196.425C293.288 202.182 293.989 207.919 295.387 213.504C295.695 214.736 296.038 215.961 296.414 217.181C296.603 217.79 296.804 218.393 297.006 218.997C297.516 220.505 298.081 221.999 298.7 223.478C299.072 224.364 299.462 225.243 299.872 226.117C302.474 231.67 305.794 236.859 309.749 241.551C310.397 242.324 311.067 243.085 311.758 243.832C311.764 243.832 311.758 243.839 311.758 243.839C313.472 245.704 315.287 247.475 317.194 249.143H317.2C317.963 249.815 318.737 250.467 319.525 251.097C319.531 251.091 319.531 251.097 319.531 251.097C320.325 251.738 321.125 252.354 321.944 252.951C322.353 253.246 322.769 253.542 323.191 253.837C324.016 254.422 324.858 254.985 325.717 255.528H325.723C326.58 256.081 327.449 256.609 328.331 257.111C330.101 258.123 331.915 259.072 333.779 259.933L334.094 260.077L334.416 259.933C337.405 258.591 340.487 257.463 343.637 256.558C344.33 256.357 345.03 256.175 345.722 255.999C347.474 255.565 349.237 255.201 351.014 254.905C349.283 255.772 347.612 256.752 346.012 257.84C344.771 258.676 343.549 259.587 342.321 260.593C341.911 260.926 341.502 261.271 341.093 261.623L340.072 262.503L341.351 262.924C341.817 263.075 342.283 263.226 342.749 263.364C343.385 263.565 344.015 263.748 344.633 263.917C345.981 264.294 347.337 264.627 348.702 264.916C349.036 264.986 349.363 265.055 349.697 265.124C350.346 265.25 351.001 265.375 351.656 265.488C351.683 265.495 351.71 265.499 351.738 265.501C352.418 265.614 353.105 265.721 353.785 265.815C355.051 265.997 356.317 266.142 357.584 266.249C357.722 266.268 357.861 266.274 358.006 266.28C358.314 266.305 358.617 266.33 358.925 266.349C359.606 266.393 360.292 266.425 360.979 266.45C361.029 266.45 361.073 266.456 361.124 266.456C361.47 266.469 361.816 266.481 362.163 266.487C362.163 266.487 362.163 266.494 362.169 266.487C362.516 266.494 362.862 266.5 363.209 266.5H365.123C365.483 266.5 365.842 266.506 366.207 266.506C366.711 266.506 367.221 266.513 367.725 266.519C367.857 266.519 367.996 266.525 368.134 266.525C368.941 266.538 369.747 266.557 370.553 266.575C370.604 266.575 370.654 266.582 370.704 266.582C371.511 266.607 372.317 266.632 373.123 266.67C373.3 266.676 373.476 266.682 373.659 266.695C374.433 266.726 375.208 266.764 375.983 266.808C376.203 266.821 376.43 266.839 376.657 266.852C377.243 266.883 377.835 266.921 378.421 266.965C378.767 266.984 379.107 267.009 379.454 267.041C380.852 267.147 382.244 267.267 383.643 267.405C384.109 267.443 384.575 267.493 385.041 267.543C386.288 267.675 387.54 267.82 388.795 267.977C389.356 268.04 389.917 268.115 390.477 268.191C390.54 268.197 390.603 268.203 390.666 268.216C391.359 268.31 392.046 268.404 392.738 268.505C393.192 268.568 393.646 268.637 394.099 268.706C394.565 268.775 395.031 268.844 395.497 268.926C395.749 268.964 396.001 269.007 396.26 269.051C396.864 269.146 397.475 269.246 398.086 269.359C398.141 269.365 398.196 269.373 398.25 269.385C399.548 269.611 400.852 269.85 402.149 270.107C402.911 270.252 403.667 270.403 404.423 270.56C405.015 270.679 405.607 270.805 406.2 270.931C406.3 270.949 406.401 270.974 406.502 271C406.524 271.006 406.548 271.011 406.571 271.012C407.466 271.207 408.366 271.408 409.261 271.622C412.366 272.338 415.468 273.134 418.565 274.01C419.276 274.205 419.988 274.412 420.7 274.619C421.002 274.707 421.298 274.795 421.594 274.883C422.212 275.066 422.823 275.248 423.44 275.443C423.982 275.606 424.53 275.776 425.071 275.952C425.412 276.059 425.752 276.165 426.092 276.278C426.621 276.442 427.15 276.612 427.673 276.794C428.12 276.932 428.561 277.077 429.002 277.234C429.632 277.441 430.268 277.655 430.898 277.881C431.081 277.944 431.27 278.007 431.452 278.076C432.221 278.34 432.989 278.61 433.758 278.893C434.507 279.163 435.257 279.439 436 279.716C436.517 279.911 437.033 280.099 437.544 280.3C438.117 280.52 438.69 280.74 439.257 280.967C440.076 281.287 440.901 281.614 441.72 281.947C442.476 282.249 443.225 282.557 443.981 282.877C444.12 282.934 444.265 282.99 444.403 283.053C445.058 283.323 445.713 283.606 446.362 283.889C446.784 284.065 447.2 284.247 447.616 284.429C449.43 285.221 451.242 286.04 453.052 286.886H453.058C454.192 287.421 455.345 287.93 456.504 288.414C456.775 288.527 457.045 288.64 457.323 288.747C457.782 288.941 458.248 289.124 458.715 289.312C459.017 289.432 459.319 289.551 459.628 289.664C460.075 289.84 460.529 290.01 460.982 290.173C461.461 290.349 461.933 290.525 462.418 290.688C462.589 290.751 462.759 290.808 462.935 290.871C463.496 291.059 464.056 291.248 464.623 291.43C464.68 291.449 464.737 291.468 464.8 291.487C465.392 291.675 465.984 291.864 466.582 292.04C466.629 292.057 466.678 292.072 466.727 292.084C467.37 292.278 468.025 292.467 468.673 292.649C469.631 292.913 470.595 293.165 471.558 293.397C471.735 293.441 471.911 293.485 472.088 293.523C472.604 293.648 473.114 293.768 473.631 293.881C474.179 294.007 474.733 294.12 475.281 294.233C475.835 294.346 476.39 294.459 476.938 294.56C477.234 294.616 477.53 294.673 477.82 294.723L478.594 294.855C479.13 294.949 479.665 295.031 480.207 295.119C480.222 295.118 480.237 295.12 480.251 295.125C480.862 295.219 481.467 295.307 482.078 295.383C482.664 295.465 483.249 295.534 483.835 295.603C483.955 295.615 484.081 295.628 484.207 295.641C484.692 295.697 485.177 295.754 485.662 295.798C485.801 295.81 485.939 295.823 486.078 295.835C486.556 295.879 487.035 295.923 487.514 295.955C487.61 295.967 487.707 295.974 487.804 295.974C488.232 296.011 488.66 296.043 489.089 296.062C489.391 296.087 489.687 296.099 489.989 296.118C490.147 296.124 490.298 296.131 490.455 296.137C490.871 296.162 491.287 296.175 491.709 296.187C492.219 296.206 492.729 296.219 493.233 296.231C493.844 296.244 494.462 296.25 495.073 296.25H495.085C495.684 296.25 496.288 296.244 496.887 296.231H497.114L497.775 296.212C498.115 296.206 498.455 296.194 498.789 296.181C499.432 296.156 500.068 296.124 500.704 296.087C500.956 296.074 501.214 296.055 501.466 296.043C501.58 296.036 501.699 296.024 501.813 296.018C502.21 295.992 502.6 295.967 502.997 295.936C503.406 295.904 503.822 295.867 504.232 295.823C504.761 295.773 505.29 295.716 505.819 295.659C506.235 295.615 506.65 295.565 507.06 295.515C507.115 295.51 507.17 295.502 507.224 295.49C507.62 295.446 508.017 295.395 508.408 295.339C508.874 295.276 509.334 295.207 509.794 295.138C509.844 295.132 509.888 295.125 509.939 295.119C510.732 294.993 511.532 294.868 512.332 294.723C513.17 294.572 514.008 294.409 514.839 294.239C515.148 294.176 515.45 294.107 515.759 294.044C515.929 294.007 516.105 293.975 516.269 293.938C516.527 293.881 516.779 293.824 517.031 293.762C517.075 293.755 517.126 293.743 517.17 293.736C517.523 293.661 517.869 293.573 518.222 293.485C518.927 293.315 519.62 293.139 520.313 292.951C520.622 292.875 520.93 292.794 521.226 292.712C521.315 292.687 521.403 292.662 521.485 292.637C522.763 292.278 524.032 291.899 525.289 291.499C525.844 291.323 526.392 291.141 526.94 290.946C528.118 290.544 529.285 290.121 530.442 289.677C530.751 289.564 531.059 289.438 531.368 289.319C531.821 289.136 532.275 288.954 532.722 288.772C533.125 288.602 533.528 288.432 533.938 288.256C534.139 288.175 534.341 288.087 534.543 287.999C535.147 287.735 535.752 287.465 536.35 287.194C536.754 287.006 537.15 286.824 537.547 286.635C538.177 286.333 538.801 286.026 539.424 285.718C539.582 285.636 539.733 285.554 539.884 285.479C540.281 285.278 540.678 285.07 541.081 284.869C541.717 284.53 542.353 284.191 542.983 283.839C543.197 283.725 543.405 283.606 543.62 283.487C544.312 283.097 544.999 282.701 545.679 282.299C547.185 281.4 548.669 280.462 550.133 279.484C550.498 279.245 550.863 278.993 551.222 278.748C551.903 278.283 552.57 277.806 553.238 277.328C553.307 277.278 553.37 277.227 553.44 277.183C553.774 276.938 554.107 276.693 554.441 276.442C555.134 275.92 555.821 275.392 556.507 274.852C556.52 274.846 556.539 274.827 556.558 274.814C556.866 274.569 557.175 274.324 557.477 274.079C558.416 273.319 559.342 272.546 560.249 271.748C560.696 271.364 561.137 270.968 561.572 270.572C561.899 270.277 562.227 269.982 562.548 269.68C563.197 269.07 563.833 268.467 564.463 267.851C564.778 267.55 565.087 267.235 565.402 266.921C565.71 266.607 566.025 266.293 566.334 265.972C566.441 265.865 566.548 265.752 566.655 265.639C566.97 265.306 567.285 264.967 567.6 264.634C567.871 264.345 568.135 264.043 568.406 263.741C568.86 263.239 569.32 262.736 569.767 262.227C569.79 262.198 569.816 262.171 569.842 262.145C569.868 262.114 569.893 262.089 569.912 262.063H569.905C579.061 251.5 585.864 239.118 589.864 225.735C593.864 212.353 594.969 198.275 593.107 184.435C591.245 170.594 586.458 157.305 579.063 145.449C571.667 133.592 561.832 123.438 550.208 115.657L550.208 115.657Z" fill="#862513"/>
<g opacity="0.15">
<path opacity="0.15" d="M422.71 41.4972C423.966 45.9971 425.855 50.2964 428.321 54.2669C424.193 50.7286 420.504 46.7096 417.334 42.2958C419.115 41.9597 420.907 41.6935 422.71 41.4972Z" fill="black"/>
<path opacity="0.15" d="M361.246 111.088C356.584 113.626 352.225 116.683 348.252 120.2C354.96 112.287 359.862 103.013 362.619 93.0211C362.653 92.9011 362.686 92.7802 362.719 92.66L362.813 92.3199C366.126 80.3945 372.555 69.561 381.441 60.9275L382.14 60.2483L382.633 61.0876C385.357 65.709 388.617 69.9943 392.346 73.8552C386.632 89.9393 375.514 103.326 361.246 111.088Z" fill="black"/>
<path opacity="0.15" d="M394.081 68.2822L393.988 68.6223C393.955 68.7426 393.922 68.8634 393.888 68.9834C393.704 69.6448 393.509 70.3011 393.307 70.9546C391.314 65.8053 389.915 60.4468 389.136 54.9822L389.062 54.5185L389.445 54.246C394.238 50.8098 399.444 47.9863 404.941 45.8417C400.005 52.614 396.327 60.2145 394.081 68.2822Z" fill="black"/>
<path opacity="0.15" d="M329.977 135.126C334.103 132.873 337.965 130.168 341.491 127.062C334.447 135.244 329.398 144.941 326.74 155.395C324.081 165.848 323.885 176.774 326.167 187.316C328.449 197.858 333.146 207.729 339.891 216.157C346.637 224.585 355.246 231.34 365.046 235.893L365.364 236.039L365.682 235.896C370.975 233.51 376.556 231.82 382.285 230.866C378.709 232.684 375.376 234.941 372.364 237.586L371.344 238.465L372.623 238.886C373.726 239.251 374.83 239.586 375.903 239.883C382.207 241.634 388.725 242.504 395.268 242.468C425.001 242.278 454.964 249.136 484.325 262.85C489.361 265.199 494.583 267.125 499.939 268.608C523.28 275.091 548.198 272.759 569.923 262.057C557.675 276.19 541.66 286.566 523.737 291.98C505.814 297.394 486.719 297.625 468.67 292.645C463.314 291.162 458.091 289.236 453.056 286.888C423.695 273.173 393.732 266.315 363.999 266.505C357.455 266.542 350.938 265.672 344.634 263.92C343.561 263.623 342.457 263.288 341.354 262.924L340.075 262.503L341.094 261.624C344.107 258.979 347.44 256.721 351.016 254.904C345.287 255.857 339.706 257.548 334.413 259.934L334.095 260.077L333.777 259.93C322.009 254.466 311.994 245.846 304.85 235.033C297.707 224.221 293.715 211.64 293.321 198.696C292.927 185.752 296.146 172.953 302.619 161.728C309.091 150.503 318.563 141.293 329.977 135.126L329.977 135.126Z" fill="black"/>
</g>
</svg>
