<svg width="37" height="37" viewBox="0 0 37 37" fill="none" xmlns="http://www.w3.org/2000/svg">
<path d="M1.13672 32.6711L9.35895 36.7818C9.6443 36.9242 9.95886 36.9983 10.2778 36.9983C10.5967 36.9983 10.9113 36.9242 11.1966 36.7818L18.5 33.1295L25.8034 36.7797C26.0881 36.9242 26.4027 36.9996 26.722 37C27.0412 37.0004 27.3561 36.9256 27.6411 36.7818L35.8633 32.6711C36.5601 32.3217 37 31.6106 37 30.8316V20.5549C37 19.7759 36.5601 19.0648 35.8633 18.7154L28.7778 15.174V6.1675C28.7778 5.38852 28.3379 4.67737 27.6411 4.32796L19.4188 0.217282C19.1333 0.0743939 18.8183 0 18.499 0C18.1796 0 17.8647 0.0743939 17.5791 0.217282L9.35689 4.32796C8.66211 4.67737 8.22222 5.38852 8.22222 6.1675V15.174L1.13672 18.7174C0.795034 18.8876 0.507616 19.1498 0.306799 19.4744C0.105981 19.799 -0.000268457 20.1732 5.0939e-07 20.5549V30.8316C5.0939e-07 31.6106 0.439889 32.3217 1.13672 32.6711ZM10.2778 18.7421L14.9316 21.0687L8.94372 24.0634L4.28994 21.7367L10.2778 18.7421ZM18.5 13.6037L24.6667 10.5207V15.174L18.5 18.257V13.6037ZM31.376 21.0687L25.4519 24.0305L20.7981 21.7038L26.7222 18.7421L31.376 21.0687ZM10.2778 32.6444L10.1503 32.5807V28.0569L16.4444 24.9081V29.5614L10.2778 32.6444ZM26.7222 32.6444V27.9911L32.8889 24.9081V29.5614L26.7222 32.6444ZM18.5 4.35468L23.1538 6.68133L17.2297 9.64308L12.5759 7.31643L18.5 4.35468Z" fill="#862513"/>
</svg>
