<svg width="39" height="42" viewBox="0 0 39 42" fill="none" xmlns="http://www.w3.org/2000/svg">
<path d="M38.5605 25.9392L34.0605 21.4392C33.7792 21.158 33.3977 21 33 21C32.6023 21 32.2208 21.158 31.9395 21.4392L18 35.3787V41.9997H24.621L38.5605 28.0602C38.8417 27.7789 38.9997 27.3974 38.9997 26.9997C38.9997 26.6019 38.8417 26.2205 38.5605 25.9392ZM23.379 38.9997H21V36.6207L28.5 29.1207L30.879 31.4997L23.379 38.9997ZM33 29.3787L30.621 26.9997L33 24.6207L35.379 26.9997L33 29.3787Z" fill="#862513"/>
<path d="M21 24V18H24V24H21Z" fill="#862513"/>
<path d="M15 24V15H18V24H15Z" fill="#862513"/>
<path d="M9 24V9H12V24H9Z" fill="#862513"/>
<path d="M12 42H3C2.20459 41.9992 1.44199 41.6829 0.879557 41.1204C0.31712 40.558 0.000794215 39.7954 0 39V3C0.000794215 2.20459 0.31712 1.44199 0.879557 0.879557C1.44199 0.31712 2.20459 0.000794215 3 0H27C27.7954 0.000794215 28.558 0.31712 29.1204 0.879557C29.6829 1.44199 29.9992 2.20459 30 3V18H27V3H3V39H12V42Z" fill="#862513"/>
</svg>
