<svg width="44" height="41" viewBox="0 0 44 41" fill="none" xmlns="http://www.w3.org/2000/svg">
<path d="M42.2714 14.022C41.1671 11.294 39.5661 8.81555 37.5571 6.724C35.553 4.62741 33.1782 2.95653 30.5643 1.804C27.8487 0.60475 24.971 0 22 0C19.029 0 16.1513 0.60475 13.4357 1.804C10.8218 2.95653 8.44695 4.62741 6.44286 6.724C4.43393 8.81555 2.83291 11.294 1.72857 14.022C0.579464 16.8561 0 19.8594 0 22.96C0 29.7609 2.86295 36.1671 7.85223 40.5439L7.93571 40.6156C8.22054 40.8616 8.57902 41 8.94732 41H35.0576C35.4259 41 35.7844 40.8616 36.0692 40.6156L36.1527 40.5439C41.1371 36.1671 44 29.7609 44 22.96C44 19.8594 43.4156 16.8561 42.2714 14.022ZM34.2473 37.105H9.75268C7.85516 35.3194 6.33859 33.1374 5.30139 30.7005C4.2642 28.2637 3.72955 25.6265 3.73214 22.96C3.73214 17.8657 5.63259 13.079 9.08482 9.48125C12.5371 5.87837 17.1237 3.895 22 3.895C26.8812 3.895 31.4679 5.87837 34.9152 9.48125C38.3674 13.0841 40.2679 17.8709 40.2679 22.96C40.2679 28.372 38.0826 33.4919 34.2473 37.105ZM27.4754 15.8619C27.4016 15.7856 27.3019 15.7428 27.198 15.7428C27.0941 15.7428 26.9944 15.7856 26.9205 15.8619L22.771 20.1925C21.8527 19.9362 20.8362 20.1822 20.1143 20.9356C19.8586 21.202 19.6558 21.5183 19.5174 21.8666C19.379 22.2148 19.3077 22.5881 19.3077 22.9651C19.3077 23.3421 19.379 23.7155 19.5174 24.0637C19.6558 24.4119 19.8586 24.7283 20.1143 24.9946C20.3695 25.2615 20.6726 25.4732 21.0063 25.6176C21.34 25.762 21.6977 25.8364 22.0589 25.8364C22.4202 25.8364 22.7779 25.762 23.1116 25.6176C23.4453 25.4732 23.7484 25.2615 24.0036 24.9946C24.3456 24.6388 24.5915 24.195 24.7166 23.7082C24.8416 23.2213 24.8413 22.7087 24.7156 22.222L28.8652 17.8914C29.0174 17.7325 29.0174 17.4711 28.8652 17.3122L27.4754 15.8619V15.8619ZM20.9196 10.66H23.0804C23.2964 10.66 23.4732 10.4755 23.4732 10.25V6.15C23.4732 5.9245 23.2964 5.74 23.0804 5.74H20.9196C20.7036 5.74 20.5268 5.9245 20.5268 6.15V10.25C20.5268 10.4755 20.7036 10.66 20.9196 10.66ZM33.6875 21.8325V24.0875C33.6875 24.313 33.8643 24.4975 34.0804 24.4975H38.0089C38.225 24.4975 38.4018 24.313 38.4018 24.0875V21.8325C38.4018 21.607 38.225 21.4225 38.0089 21.4225H34.0804C33.8643 21.4225 33.6875 21.607 33.6875 21.8325ZM34.3112 11.726L32.7839 10.1321C32.7101 10.0558 32.6104 10.013 32.5065 10.013C32.4026 10.013 32.3029 10.0558 32.229 10.1321L29.4496 13.0329C29.3764 13.1099 29.3354 13.214 29.3354 13.3224C29.3354 13.4309 29.3764 13.5349 29.4496 13.612L30.9768 15.2059C31.129 15.3648 31.3795 15.3648 31.5317 15.2059L34.3112 12.3051C34.4634 12.1463 34.4634 11.8849 34.3112 11.726ZM11.7906 10.1321C11.7168 10.0558 11.6171 10.013 11.5132 10.013C11.4093 10.013 11.3095 10.0558 11.2357 10.1321L9.70848 11.726C9.63537 11.8031 9.59436 11.9071 9.59436 12.0156C9.59436 12.124 9.63537 12.2281 9.70848 12.3051L12.4879 15.2059C12.6402 15.3648 12.8906 15.3648 13.0429 15.2059L14.5701 13.612C14.7223 13.4531 14.7223 13.1917 14.5701 13.0329L11.7906 10.1321ZM9.72321 21.4225H5.79464C5.57857 21.4225 5.40179 21.607 5.40179 21.8325V24.0875C5.40179 24.313 5.57857 24.4975 5.79464 24.4975H9.72321C9.93929 24.4975 10.1161 24.313 10.1161 24.0875V21.8325C10.1161 21.607 9.93929 21.4225 9.72321 21.4225Z" fill="#862513"/>
</svg>
