<svg width="37" height="41" viewBox="0 0 37 41" fill="none" xmlns="http://www.w3.org/2000/svg">
<path d="M16.65 14.565C14.9061 14.1147 13.3863 13.0439 12.3754 11.5532C11.3645 10.0625 10.932 8.25432 11.159 6.46756C11.3859 4.68081 12.2567 3.03816 13.6082 1.84752C14.9596 0.656883 16.6989 0 18.5 0C20.3011 0 22.0404 0.656883 23.3918 1.84752C24.7433 3.03816 25.6141 4.68081 25.841 6.46756C26.068 8.25432 25.6355 10.0625 24.6246 11.5532C23.6137 13.0439 22.0939 14.1147 20.35 14.565V18.4981H27.75C28.7313 18.4981 29.6724 18.8879 30.3663 19.5818C31.0602 20.2757 31.45 21.2168 31.45 22.1981V26.1312C33.1939 26.5815 34.7137 27.6523 35.7246 29.143C36.7355 30.6337 37.1679 32.4419 36.941 34.2286C36.7141 36.0154 35.8432 37.658 34.4918 38.8487C33.1404 40.0393 31.4011 40.6962 29.6 40.6962C27.7989 40.6962 26.0596 40.0393 24.7082 38.8487C23.3567 37.658 22.4859 36.0154 22.259 34.2286C22.032 32.4419 22.4645 30.6337 23.4754 29.143C24.4862 27.6523 26.0061 26.5815 27.75 26.1312V22.1981H9.25001V26.1312C10.9939 26.5815 12.5138 27.6523 13.5246 29.143C14.5355 30.6337 14.968 32.4419 14.741 34.2286C14.5141 36.0154 13.6433 37.658 12.2918 38.8487C10.9404 40.0393 9.20112 40.6962 7.40001 40.6962C5.5989 40.6962 3.85962 40.0393 2.50819 38.8487C1.15675 37.658 0.285946 36.0154 0.0589982 34.2286C-0.167949 32.4419 0.264542 30.6337 1.2754 29.143C2.28627 27.6523 3.8061 26.5815 5.55001 26.1312V22.1981C5.55001 21.2168 5.93983 20.2757 6.63372 19.5818C7.3276 18.8879 8.26871 18.4981 9.25001 18.4981H16.65V14.565Z" fill="#862513"/>
</svg>
