<svg width="45" height="34" viewBox="0 0 45 34" fill="none" xmlns="http://www.w3.org/2000/svg">
<path d="M7.5 3.77778V22.6667H16.875V15.1111C16.875 14.1092 17.2701 13.1483 17.9734 12.4398C18.6766 11.7313 19.6304 11.3333 20.625 11.3333H30C30.9946 11.3333 31.9484 11.7313 32.6516 12.4398C33.3549 13.1483 33.75 14.1092 33.75 15.1111V22.6667H37.5V3.77778H7.5ZM0 30.2222V26.4444H7.5C6.50544 26.4444 5.55161 26.0464 4.84835 25.338C4.14509 24.6295 3.75 23.6686 3.75 22.6667V3.77778C3.75 2.77585 4.14509 1.81496 4.84835 1.10649C5.55161 0.398015 6.50544 0 7.5 0H37.5C38.4946 0 39.4484 0.398015 40.1516 1.10649C40.8549 1.81496 41.25 2.77585 41.25 3.77778V22.6667C41.25 23.6686 40.8549 24.6295 40.1516 25.338C39.4484 26.0464 38.4946 26.4444 37.5 26.4444H45V30.2222H33.75C33.75 31.2242 33.3549 32.185 32.6516 32.8935C31.9484 33.602 30.9946 34 30 34H20.625C19.6304 34 18.6766 33.602 17.9734 32.8935C17.2701 32.185 16.875 31.2242 16.875 30.2222H0ZM21.5625 30.2222C21.3139 30.2222 21.0754 30.3217 20.8996 30.4988C20.7238 30.676 20.625 30.9162 20.625 31.1667C20.625 31.4171 20.7238 31.6574 20.8996 31.8345C21.0754 32.0116 21.3139 32.1111 21.5625 32.1111C21.8111 32.1111 22.0496 32.0116 22.2254 31.8345C22.4012 31.6574 22.5 31.4171 22.5 31.1667C22.5 30.9162 22.4012 30.676 22.2254 30.4988C22.0496 30.3217 21.8111 30.2222 21.5625 30.2222ZM29.0625 30.2222C28.8139 30.2222 28.5754 30.3217 28.3996 30.4988C28.2238 30.676 28.125 30.9162 28.125 31.1667C28.125 31.4171 28.2238 31.6574 28.3996 31.8345C28.5754 32.0116 28.8139 32.1111 29.0625 32.1111C29.3111 32.1111 29.5496 32.0116 29.7254 31.8345C29.9012 31.6574 30 31.4171 30 31.1667C30 30.9162 29.9012 30.676 29.7254 30.4988C29.5496 30.3217 29.3111 30.2222 29.0625 30.2222ZM24.375 30.2222V32.1111H26.25V30.2222H24.375ZM20.625 15.1111V28.3333H30V15.1111H20.625Z" fill="#862513"/>
</svg>
