<svg width="40" height="40" viewBox="0 0 40 40" fill="none" xmlns="http://www.w3.org/2000/svg">
<path fill-rule="evenodd" clip-rule="evenodd" d="M0 4.375C0 1.96 1.96 0 4.375 0H13.125C15.54 0 17.5 1.96 17.5 4.375V13.125C17.5 14.2853 17.0391 15.3981 16.2186 16.2186C15.3981 17.0391 14.2853 17.5 13.125 17.5H10V27.5C10 28.163 10.2634 28.7989 10.7322 29.2678C11.2011 29.7366 11.837 30 12.5 30H22.5V26.875C22.5 24.46 24.46 22.5 26.875 22.5H35.625C38.04 22.5 40 24.46 40 26.875V35.625C40 36.7853 39.5391 37.8981 38.7186 38.7186C37.8981 39.5391 36.7853 40 35.625 40H26.875C25.7147 40 24.6019 39.5391 23.7814 38.7186C22.9609 37.8981 22.5 36.7853 22.5 35.625V33.75H12.5C10.8424 33.75 9.25269 33.0915 8.08058 31.9194C6.90848 30.7473 6.25 29.1576 6.25 27.5V17.5H4.375C3.21468 17.5 2.10188 17.0391 1.28141 16.2186C0.460936 15.3981 0 14.2853 0 13.125L0 4.375ZM4.375 3.75C4.20924 3.75 4.05027 3.81585 3.93306 3.93306C3.81585 4.05027 3.75 4.20924 3.75 4.375V13.125C3.75 13.47 4.03 13.75 4.375 13.75H13.125C13.2908 13.75 13.4497 13.6842 13.5669 13.5669C13.6842 13.4497 13.75 13.2908 13.75 13.125V4.375C13.75 4.20924 13.6842 4.05027 13.5669 3.93306C13.4497 3.81585 13.2908 3.75 13.125 3.75H4.375ZM26.875 26.25C26.7092 26.25 26.5503 26.3158 26.4331 26.4331C26.3158 26.5503 26.25 26.7092 26.25 26.875V35.625C26.25 35.97 26.53 36.25 26.875 36.25H35.625C35.7908 36.25 35.9497 36.1842 36.0669 36.0669C36.1842 35.9497 36.25 35.7908 36.25 35.625V26.875C36.25 26.7092 36.1842 26.5503 36.0669 26.4331C35.9497 26.3158 35.7908 26.25 35.625 26.25H26.875Z" fill="#862513"/>
</svg>
